<?xml version="1.0" encoding="UTF-8" standalone="no"?>
<svg
   xmlns:dc="http://purl.org/dc/elements/1.1/"
   xmlns:cc="http://creativecommons.org/ns#"
   xmlns:rdf="http://www.w3.org/1999/02/22-rdf-syntax-ns#"
   xmlns:svg="http://www.w3.org/2000/svg"
   xmlns="http://www.w3.org/2000/svg"
   xmlns:sodipodi="http://sodipodi.sourceforge.net/DTD/sodipodi-0.dtd"
   xmlns:inkscape="http://www.inkscape.org/namespaces/inkscape"
   width="4237"
   height="3002"
   viewBox="0 0 4237 3002"
   version="1.1"
   id="svg7"
   sodipodi:docname="shelly_simple.svg"
   inkscape:version="0.92.3 (2405546, 2018-03-11)">
  <metadata
     id="metadata13">
    <rdf:RDF>
      <cc:Work
         rdf:about="">
        <dc:format>image/svg+xml</dc:format>
        <dc:type
           rdf:resource="http://purl.org/dc/dcmitype/StillImage" />
      </cc:Work>
    </rdf:RDF>
  </metadata>
  <defs
     id="defs11" />
  <sodipodi:namedview
     pagecolor="#ffffff"
     bordercolor="#666666"
     borderopacity="1"
     objecttolerance="10"
     gridtolerance="10"
     guidetolerance="10"
     inkscape:pageopacity="0"
     inkscape:pageshadow="2"
     inkscape:window-width="1680"
     inkscape:window-height="1027"
     id="namedview9"
     showgrid="false"
     inkscape:zoom="0.15722851"
     inkscape:cx="2428.2576"
     inkscape:cy="1287.9754"
     inkscape:window-x="1358"
     inkscape:window-y="-8"
     inkscape:window-maximized="1"
     inkscape:current-layer="svg7" />
  <path
     style="fill:#6e6e6e"
     d="m 1511.9721,2902.9954 c -44.2533,-4.6528 -92.2471,-25.6014 -146.0272,-63.7388 -24.8094,-17.5932 -49.5026,-39.6839 -87.6876,-78.446 -27.2198,-27.6311 -43.428,-45.5567 -64.1939,-70.9955 -12.3572,-15.1379 -15.0362,-17.8939 -18.6016,-19.1365 -27.4316,-9.5606 -42.9545,-15.2853 -50.7626,-18.7208 -39.5567,-17.4044 -74.8362,-41.1901 -117.0934,-78.9453 l -13.3092,-11.8912 -14.99999,-6.2133 c -89.4829,-37.0659 -140.0713,-74.7829 -191.0063,-142.408 -10.9459,-14.5326 -30.4541,-43.1129 -45.2541,-66.2991 -6.7165,-10.5222 -7.5905,-11.4722 -12.7127,-13.8172 -3.0252,-1.385 -5.9248,-2.2558 -6.4435,-1.9353 -1.5338,0.948 4.0896,13.3032 27.9982,61.5154 26.8617,54.1671 39.2298,77.7001 59.145,112.5362 31.8399,55.6948 62.2873,122.0033 70.7388,154.0553 2.6948,10.2202 3.8582,25.8177 2.0108,26.9594 -2.3191,1.4333 -17.7624,-15.8798 -36.1693,-40.5485 -20.7217,-27.7709 -39.1905,-51.0498 -81.2937,-102.4662 -56.301,-68.7549 -130.1106,-160.975 -162.4735,-203 -16.6059,-21.5637 -25.6185,-35.2232 -37.3696,-56.6377 -2.0033,-3.6507 -4.2649,-6.8766 -5.0257,-7.1685 -3.5221,-1.3516 -16.7896,10.9719 -25.4194,23.6107 -4.2561,6.2334 -4.7069,7.4313 -4.5426,12.0725 0.7897,22.3112 43.1206,109.9282 94.6638,195.9362 23.461,39.1484 41.2038,66.353 80.7497,123.812 48.0249,69.7785 55.0071,81.0568 76.3796,123.3748 14.2383,28.1921 23.8761,50.3915 30.6173,70.5227 8.7344,26.0835 8.8376,37.9773 0.3295,37.9773 -3.1141,0 -18.356,-14.6477 -46.3055,-44.5 -38.5247,-41.1475 -101.4194,-104.6338 -201.0234,-202.9143 -144.835,-142.9105 -220.6178,-220.9068 -249.7898,-257.0857 -12.2556,-15.1992 -21.369,-33.1385 -24.8282,-48.8731 -2.3416,-10.6505 -1.7015,-25.3464 1.3645,-31.3309 5.6896,-11.1055 37.3908,-46.5531 119.6554,-133.796 42.7041,-45.2883 79.7153,-85.1597 80.7525,-86.9928 0.4917,-0.8692 -2.3559,-4.8626 -8.3177,-11.6644 -4.9861,-5.6886 -13.1976,-15.7182 -18.2478,-22.2882 -5.0503,-6.57 -12.97,-16.02 -17.5995,-21 -12.7848,-13.7529 -30.4703,-34.5742 -41.6668,-49.0546 -62.5842,-80.9398 -107.9203,-177.3704 -120.8266,-257 -3.4941,-21.5575 -4.0452,-28.7897 -4.0006,-52.5 0.038,-20.0504 0.4416,-27.0426 2.2242,-38.5 5.6663,-36.4179 17.1143,-68.5151 41.7301,-117 6.7017,-13.2 18.0167,-35.475 25.1446,-49.5 29.4692,-57.9848 41.3178,-95.6922 45.2485,-144 0.6041,-7.425 1.306,-15.7353 1.5597,-18.4674 0.448,-4.8238 0.1611,-5.4743 -9.9227,-22.5 -38.1933,-64.4858 -70.8286,-135.5604 -84.6086,-184.2644 -7.4968,-26.4967 -11.7567,-57.7858 -10.4441,-76.71179 3.3944,-48.9399 20.2718,-86.6893 52.4444,-117.30128 l 11.06,-10.52347 -2.9284,-11.36583 c -3.9283,-15.24656 -5.5068,-29.73716 -4.7783,-43.86583 1.3612,-26.40225 6.3822,-42.4437 24.8036,-79.24335 15.3741,-30.7122 20.7296,-45.6459 22.9662,-64.0412 2.1513,-17.6936 -1.2982,-31.7528 -15.6328,-63.7154 -6.2597,-13.9574 -11.0232,-28.2231 -12.5177,-37.4877 -2.4684,-15.3014 0.8227,-31.7594 9.1559,-45.7862 5.1443,-8.6591 18.8267,-22.6865 27.9066,-28.6102 15.1873,-9.9081 35.5966,-18.1314 62.4184,-25.1494 8.2052,-2.1468 15.4052,-4.3896 16,-4.9838 1.796,-1.7941 1.8958,-17.7299 0.1627,-25.9827 -3.2438,-15.4468 -13.4731,-31.8891 -25.8776,-41.5949 -12.0422,-9.4224 -22.7571,-13.9382 -62.7035,-26.4268 -9.075,-2.8371 -20.1535,-6.8611 -24.6188,-8.942 -21.0111,-9.7918 -34.7813,-23.8097 -40.4809,-41.2088 -3.111,-9.4971 -3.349,-25.3709 -0.5072,-33.8275 6.332,-18.8426 21.4266,-32.2641 41.1069,-36.5507 4.5257,-0.9857 16.5438,-1.821 34,-2.3631 23.6011,-0.733 27.8812,-1.1167 34,-3.0479 25.5929,-8.0778 47.6438,-29.1482 62.0231,-59.265 4.0983,-8.5836 8.6647,-21.8462 17.9983,-52.2733 5.1955,-16.9371 10.3207,-26.4341 18.9295,-35.076705 7.9855,-8.0166 15.0077,-11.8945 24.0491,-13.2805 11.3767,-1.7441 21.7442,0.8362 43.2512,10.7644 7.0118,3.2369 15.6738,6.7786 19.2488,7.8705 23.6809,7.232705 50.6292,0.486305 70.1339,-17.5579 3.4006,-3.1459 10.7686,-11.7948 16.3734,-19.2198 20.6501,-27.356699 35.0251,-36.370599 53.0722,-33.279299 17.6845,3.0293 31.5895,16.889099 36.9337,36.813799 2.0711,7.7214 2.0956,23.9008 0.056,37.208905 -4.1931,27.3646 0.086,43.6076 13.2946,50.4698 4.409,2.2905 6.64,2.7868 12.5282,2.7868 6.0755,0 8.2234,-0.5096 14.1358,-3.3539 9.9424,-4.7828 15.8178,-10.5915 30.4133,-30.068 7.0764,-9.4429 15.7307,-19.8484 19.2319,-23.1235 16.3663,-15.309405 32.975,-22.161405 51.3266,-21.175005 14.1834,0.7624 24.3733,5.5539 35.1946,16.5495 7.48279,7.603405 12.86219,16.118705 25.19099,39.876505 12.2551,23.6156 14.9052,28.2154 23.4834,40.7607 23.3137,34.0953 60.495,55.3383 97.8344,55.896 l 9.2123,0.1377 8.5422,-12.7281 c 17.4038,-25.9321 29.7438,-37.4661 47.5421,-44.437 6.2237,-2.4375 8.3309,-2.7451 19,-2.7735 14.7259,-0.039 20.5762,1.9137 29.1168,9.7192 6.5737,6.0081 9.7009,10.6525 12.8573,19.096 3.2763,8.7639 4.4435,17.3686 5.5106,40.6234 0.7162,15.6079 1.444,22.289 3.0499,27.9967 3.9742,14.1254 10.5187,22.83 21.5862,28.7108 12.9324,6.8719 25.4487,8.2 54.8792,5.8232 29.9732,-2.4206 41.4298,-1.1962 56.1804,6.0045 7.0895,3.4608 15.3769,10.5078 20.4193,17.363 l 2.4996,3.3982 6.4504,-2.1186 c 10.7448,-3.5291 25.8354,-7.0706 37.4503,-8.7889 16.3253,-2.4152 39.6139,-1.5215 52.8837,2.0293 24.381,6.524 42.7079,19.2942 55.0334,38.3475 11.077,17.1233 15.3472,30.9275 25.1105,81.1736 8.9135,45.8731 21.9879,69.2556 48.1058,86.0332 16.2317,10.4269 32.1572,14.5772 52.7852,13.7563 16.2602,-0.647 22.6595,-2.4383 60.5814,-16.9581 43.7557,-16.7535 71.2066,-25.1561 97,-29.6911 58.2717,-10.2454 107.3473,-0.9136 144.6117,27.4981 3.9115,2.9823 7.353,5.4223 7.6478,5.4223 0.2949,0 3.5746,-1.846 7.2884,-4.1022 14.352,-8.7192 31.1088,-14.3456 46.8295,-15.7239 29.6311,-2.598 55.0469,7.7434 77.7926,31.653 10.5963,11.1386 17.2484,21.1023 25.8194,38.6731 8.1465,16.7006 12.7119,29.5768 22.1254,62.4021 8.3214,29.0172 12.7575,43.16622 14.0262,44.73711 1.1042,1.36721 -1.8692,0.7077 37.359,8.28633 37.1198,7.17131 55.4391,11.42761 71.5,16.61235 30.7905,9.93969 59.973,25.9675 84.2658,46.28099 8.6253,7.21243 10.3075,8.23729 12.1245,7.38701 1.1603,-0.54299 14.3402,-10.14896 29.2886,-21.3466 38.6136,-28.92485 55.261,-38.87931 77.4214,-46.29463 52.1407,-17.44736 99.7558,1.60592 131.4908,52.61623 15.0103,24.12731 24.3247,52.0867 35.4195,106.31906 11.0326,53.92875 18.0912,77.70259 30.8784,104.00001 23.7458,48.83419 56.8005,77.09249 101.3773,86.66679 8.3158,1.7861 13.6071,2.2078 28.2337,2.2505 10.7321,0.031 21.0283,-0.4817 25.5,-1.2707 21.6174,-3.814 42.9688,-10.8931 64.051,-21.2362 26.1516,-12.8302 43.8995,-24.2299 89.449,-57.45429 42.697,-31.1438 71.6797,-49.65942 93,-59.4131 52.6713,-24.09628 98.5553,-28.00358 140.0762,-11.92836 16.7991,6.50393 29.7267,15.13953 41.9238,28.00499 8.2953,8.74987 13.1317,15.82557 18.5167,27.09027 6.5344,13.6691 8.2867,21.8966 8.3683,39.2901 0.1131,24.09449 -3.6393,37.70109 -22.6138,81.99999 -18.8414,43.988 -22.9067,58.2314 -22.9758,80.5 -0.029,9.3598 0.4881,14.6923 2.0586,21.2268 9.1681,38.1457 46.8361,67.2687 97.4046,75.3083 26.651,4.2371 42.1633,4.841 125.2414,4.8756 93.0412,0.039 117.6637,-0.9422 192,-7.6493 30.6272,-2.7633 39.1854,-3.1632 68.5,-3.2003 35.2141,-0.044 44.8648,0.7587 66.3329,5.5211 68.6747,15.2344 113.081,58.6506 126.1728,123.3594 10.6015,52.4004 -5.6383,110.8273 -44.4884,160.0584 -9.138,11.5797 -32.7117,34.5849 -46.0264,44.9163 -23.2229,18.0196 -51.1569,35.0357 -81.4909,49.6407 -22.9507,11.0501 -33.8637,15.6914 -91.5,38.9152 -61.7461,24.8799 -86.1153,35.5601 -124.5,54.5641 -97.5748,48.3086 -167.6926,97.374 -263.4573,184.3561 -20.6401,18.7473 -41.7357,38.7836 -98.5427,93.5946 -29.7,28.6565 -62.4375,60.1716 -72.75,70.0336 -10.3125,9.8619 -18.7332,18.6168 -18.7126,19.4551 0.021,0.8384 20.3341,16.3743 45.141,34.5243 100.4558,73.4985 129.0893,95.6476 136.2374,105.3853 14.4407,19.6721 9.622,49.4894 -14.8865,92.1147 -29.2032,50.7906 -112.2544,172.7267 -237.024,348 -48.1833,67.6866 -77.3142,110.6251 -98.0338,144.5 -13.8486,22.6414 -24.7991,38.607 -30.9182,45.0778 -4.6425,4.9094 -5.6672,5.5318 -8.6376,5.2462 -5.2108,-0.501 -6.1334,-3.2221 -5.5348,-16.324 0.6141,-13.4395 3.394,-29.8117 8.6761,-51.0974 11.8911,-47.9187 31.1718,-98.2981 64.4272,-168.3448 34.8827,-73.4745 71.1465,-168.1682 92.9137,-242.6206 13.3092,-45.5226 18.1423,-74.0932 14.6148,-86.393 -1.6609,-5.7912 -13.8786,-16.8435 -17.15,-15.5142 -1.8879,0.7672 -6.5895,7.1867 -13.8932,18.97 -28.5905,46.1256 -64.8728,100.3597 -138.7342,207.3768 -42.3365,61.341 -77.6573,113.7801 -93.7074,139.1232 -20.3217,32.0879 -24.868,37.4939 -29.4627,35.0349 -2.4975,-1.3366 -3.0282,-5.119 -1.8805,-13.4012 1.9359,-13.9694 8.978,-37.5073 20.5156,-68.5717 9.9192,-26.7072 22.9937,-56.2672 47.7961,-108.062 13.8593,-28.9423 26.2298,-56.2236 39.2226,-86.5 11.8511,-27.616 24.281,-58.0437 24.281,-59.4387 0,-2.4269 -2.7504,-0.6525 -6.5,4.1935 -2.2,2.8432 -8.275,11.3443 -13.5,18.8911 -21.3435,30.828 -49.0285,57.3041 -82.5394,78.9352 -8.0256,5.1804 -22.0999,14.3207 -31.2762,20.3119 -28.4578,18.5795 -39.7287,25.4056 -69.1844,41.9003 -39.3436,22.0317 -44.1463,24.6644 -72,39.468 -13.475,7.1616 -29.225,15.8272 -35,19.2569 -9.8513,5.8505 -31.1877,16.9818 -32.5506,16.9818 -2.0003,0 -45.2209,20.573 -76.4996,36.4138 l -36.5503,18.5106 -20.0959,21.2878 c -54.6482,57.8901 -100.9022,97.9991 -152.8032,132.5036 -65.6099,43.6182 -121.8889,66.2876 -186,74.9214 -16.3749,2.2052 -60.7565,2.5211 -76.5,0.5445 -23.1522,-2.9067 -45.8264,-8.111 -67,-15.3781 -35.5193,-12.1908 -92.3223,-47.2892 -113.9502,-70.4095 -6.2042,-6.6323 -7.6939,-9.6916 -6.6822,-13.7227 1.0594,-4.2211 4.6435,-4.9266 29.1324,-5.7351 26.511,-0.8752 41.9989,-2.6349 66.3522,-7.5387 57.8076,-11.6401 120.6386,-37.597 168.3241,-69.5384 8.8297,-5.9144 10.4547,-7.3741 9.09,-8.1652 -0.4215,-0.2443 -6.6163,0.3687 -13.7663,1.3622 -81.5486,11.3313 -123.2888,13.5529 -232.5,12.3745 -42.625,-0.4599 -122.95,-0.9003 -178.5,-0.9786 -91.0157,-0.1284 -129.8286,-0.891 -156.75,-3.0802 -4.8043,-0.3906 -7.75,-0.2591 -7.75,0.346 0,1.5154 28.248,14.6884 51.5,24.0163 44.3584,17.795 81.7968,28.5365 126.5,36.2944 20.7303,3.5975 24.7309,6.4432 21.6733,15.4167 -5.1497,15.1137 -30.4225,48.2687 -55.3327,72.59 -34.1427,33.3359 -72.1854,54.607 -109.225,61.0721 -13.2573,2.314 -46.0609,3.3472 -59.9401,1.888 z m 58.8245,-6.4932 c 40.3497,-7.0854 85.4194,-34.4908 119.715,-72.7948 22.8782,-25.5521 43.6711,-55.9318 41.7349,-60.9773 -0.9475,-2.4692 -4.7509,-3.5648 -25.2069,-7.2607 -34.3464,-6.2057 -64.9447,-14.5166 -99.0808,-26.9118 -28.6543,-10.4046 -66.1727,-27.0014 -85.6622,-37.8938 -4.95,-2.7665 -13.05,-7.125 -18,-9.6856 -17.7715,-9.1929 -49.0463,-29.0381 -78.5,-49.8115 -30.0024,-21.1605 -37.3915,-29.2432 -30.7263,-33.6104 8.9315,-5.8522 186.3406,-24.0788 316.7263,-32.5398 40.7434,-2.6439 56.2989,-4.0002 57.3456,-5.0001 0.4651,-0.4442 -1.6157,-4.3421 -4.624,-8.662 -8.7241,-12.5279 -10.3444,-16.7627 -7.3608,-19.2388 2.305,-1.9131 15.3676,-3.0287 48.9203,-4.1782 45.3062,-1.5522 62.4884,0.026 65.705,6.0366 1.6632,3.1078 0.4625,7.0075 -4.5307,14.7149 -2.427,3.7461 -4.4222,7.1486 -4.434,7.5611 -0.039,1.3599 5.3239,0.7678 16.4786,-1.8195 40.0015,-9.2781 44.0918,-9.6398 109,-9.639 62.4742,7e-4 86.5953,1.3917 124.5,7.1795 27.0388,4.1286 85.8574,16.7109 103,22.0334 12.9536,4.0218 16,6.0014 16,10.3971 0,11.1495 -34.3301,47.3109 -87,91.641 -14.0085,11.7904 -49.6045,33.7982 -75,46.37 -63.229,31.301 -125.2206,47.6379 -187,49.2807 -11.825,0.3145 -22.2875,0.978 -23.25,1.4745 -2.9521,1.5227 -2.0034,3.7412 4.5,10.5228 22.91,23.8902 78.5584,57.6701 114.75,69.6558 36.2122,11.9926 66.7569,16.3758 107,15.3546 71.7092,-1.8196 137.7129,-25.0581 213.5,-75.1687 28.5181,-18.8563 62.7739,-45.482 90,-69.9535 15.09,-13.5634 45.4399,-43.7289 65.8238,-65.4241 l 18.1762,-19.3455 13.5,-6.771 c 7.425,-3.724 14.6044,-7.1156 15.9543,-7.5368 4.8996,-1.5287 38.806,-18.79 43.7807,-22.288 1.5208,-1.0694 9.065,-5.4511 16.765,-9.7372 46.2648,-25.7524 92.7295,-56.7946 129.6422,-86.6112 46.9759,-37.9453 84.4417,-76.4268 120.5955,-123.8649 25.362,-33.2779 29.4794,-37.2652 51.1624,-49.5459 20.5626,-11.6461 44.7761,-26.6842 62.5999,-38.8782 8.8,-6.0205 18.1893,-12.4424 20.8651,-14.271 5.826,-3.9812 9.1401,-4.9605 11.1479,-3.2941 2.0676,1.716 1.8733,4.4323 -1.0349,14.468 -10.2941,35.5228 -51.8915,135.3611 -86.4632,207.5212 -33.3678,69.6473 -49.0112,107.4282 -60.4522,146 -5.2383,17.66 -8.1425,31.8202 -6.8015,33.1612 1.3536,1.3536 4.3196,-2.4475 15.3131,-19.6243 16.0843,-25.131 62.5051,-94.4952 85.6866,-128.0369 84.9703,-122.9454 128.119,-187.3412 156.5616,-233.655 6.208,-10.1087 13.2011,-17.845 16.1306,-17.845 4.6556,0 16.2593,9.6786 19.782,16.5 7.3429,14.2189 -0.6967,56.1133 -24.9473,130 -24.4485,74.4898 -51.8067,143.1712 -85.0444,213.5 -22.2465,47.0722 -34.7005,77.3715 -47.2687,115 -13.0365,39.0306 -20.5257,71.3638 -21.6808,93.6036 -0.7158,13.7815 0.1431,14.8702 6.3352,8.0307 5.2987,-5.8526 18.9562,-26.071 31.8392,-47.1343 19.9366,-32.5957 49.3848,-75.8661 98.876,-145.2855 119.7302,-167.9409 207.6611,-297.1951 235.1587,-345.6722 8.1599,-14.3854 15.6951,-31.6246 18.7171,-42.821 3.0921,-11.456 3.0217,-25.8739 -0.1665,-34.076 -4.7964,-12.3399 -15.8129,-21.2406 -130.5536,-105.4793 -125.4888,-92.1298 -132.4122,-97.5469 -136.6746,-106.9387 -1.1775,-2.5945 -1.9726,-6.6373 -2.0244,-10.2929 -0.073,-5.1583 0.5181,-7.2381 4.1294,-14.5262 2.3182,-4.6782 19.2012,-30.907 37.5178,-58.2863 20.584,-30.7683 35.3556,-53.9097 38.6774,-60.5922 l 5.3744,-10.8119 -0.039,-9.6089 c -0.053,-13.0301 -2.5419,-19.3678 -10.8734,-27.6887 -5.6305,-5.6235 -6.7164,-6.2491 -14.4655,-8.3337 -11.6888,-3.1444 -41.4958,-9.244 -71.3545,-14.6017 -51.4431,-9.2307 -72.6986,-13.6428 -75.1986,-15.6093 -1.3247,-1.042 -3.4731,-3.8027 -4.7742,-6.135 -3.6532,-6.5484 -10.7947,-23.2672 -10.7947,-25.2712 0,-0.9861 8.737,-22.5326 19.4155,-47.8811 34.5485,-82.0108 38.8221,-93.8603 38.9828,-108.0882 0.091,-8.0908 -0.181,-9.5099 -2.6967,-14.0468 -7.4929,-13.5136 -13.4231,-18.5028 -24.2291,-20.3846 -7.8158,-1.3611 -56.2014,-1.244 -111.2677,0.2692 -23.2624,0.6392 -42.9401,0.9348 -43.7281,0.6568 -1.8286,-0.645 -17.8656,-22.2041 -20.4521,-27.4946 l -1.9556,-4 2.4177,-11.6458 c 1.3298,-6.4051 6.9125,-32.0551 12.406,-57 10.1502,-46.0897 15.3883,-71.939 16.587,-81.8542 2.3667,-19.5758 -14.7407,-40.1557 -34.676,-41.7146 -8.619,-0.674 -29.4374,3.7093 -94.1063,19.814 -28.4914,7.0953 -52.8464,12.9006 -54.1221,12.9006 -2.8782,0 -18.1953,-10.7792 -23.5097,-16.5447 -2.1668,-2.3507 -4.4259,-6.0795 -5.02,-8.2861 -1.4777,-5.4877 -1.709,-38.2602 -0.6858,-97.1692 0.9414,-54.1999 0.485,-62.4697 -3.9574,-71.7026 -2.8617,-5.9479 -10.5292,-13.3145 -17.5741,-16.8844 -8.5072,-4.311 -19.5129,-2.8728 -40.1303,5.244 -9.1734,3.6114 -26.5968,11.4644 -66.0051,29.7493 -27.4222,12.7235 -48.4341,21.675 -52.387,22.3178 -5.211,0.8474 -9.4155,-0.4539 -18.8642,-5.8385 -18.0115,-10.2643 -17.5702,-9.0879 -27.9828,-74.6023 -11.4045,-71.7552 -14.3214,-86.2129 -19.4031,-96.1739 -2.7962,-5.481 -9.1535,-10.745 -18.3448,-15.1898 -18.8862,-9.1332 -22.0813,-7.457 -110.1211,57.7706 -27.7896,20.5891 -41.7049,30.3098 -43.3884,30.3098 -3.1847,0 -22.0094,-5.4316 -28.4963,-8.2221 -4.6052,-1.9812 -5.2322,-2.6852 -8.2037,-9.2115 -4.0098,-8.8066 -13.7088,-34.6244 -26.6976,-71.0664 -18.344,-51.46689 -25.3209,-67.40969 -33.4627,-76.46539 -6.1389,-6.8279 -11.0431,-8.5419 -24.3412,-8.5071 -9.544,0.025 -11.0008,0.2858 -16,2.8642 -7.5698,3.9041 -28.7924,25.4318 -63.6928,64.60829 -42.2383,47.4135 -47.0074,51.5183 -59.8072,51.4779 -4.4217,-0.014 -9.6995,-0.8622 -14.3291,-2.3029 -12.2959,-3.8262 -15.058,-7.4046 -48.3761,-62.675 -31.0095,-51.44069 -42.7869,-69.62119 -48.6088,-75.03591 -4.7363,-4.40511 -12.641,-6.80558 -22.686,-6.88918 -10.4355,-0.0869 -15.2236,1.30251 -19.6119,5.69087 -6.0177,6.01763 -26.7172,38.20573 -59.7956,92.98262 -7.2233,11.9616 -16.0286,26.3001 -19.5673,31.8633 -3.5387,5.5632 -6.5716,10.5274 -6.7396,11.0315 -0.3303,0.991 -38.7882,6.9201 -40.0484,6.1744 -0.4195,-0.2483 -14.7933,-16.0588 -31.9418,-35.1345 -32.6738,-36.3459 -62.258,-68.42089 -70.4551,-76.38699 -2.6622,-2.5871 -6.4153,-5.3557 -8.3403,-6.1524 -12.6175,-5.2221 -32.3437,-1.4189 -40.9245,7.8903 -7.6121,8.2581 -13.2955,22.3751 -43.0638,106.96599 -8.9033,25.3 -16.7107,46.5355 -17.3498,47.19 -0.639,0.6545 -9.4069,3.2547 -19.4841,5.7782 l -18.3221,4.5883 -47.6779,-35.8321 c -54.2652,-40.7828 -63.8463,-47.6098 -74.2474,-52.9045 -6.7486,-3.4355 -8.1661,-3.7842 -15.4484,-3.8012 -7.0859,-0.016 -8.8053,0.3687 -14.7893,3.3133 -7.5472,3.7138 -16.3882,11.7692 -18.9666,17.2812 -2.2601,4.8318 -7.2911,30.2434 -15.2219,76.8868 -6.8321,40.1812 -12.3639,68.8123 -15.0238,77.7596 -1.9558,6.5789 -7.0405,10.8521 -21.7163,18.2506 l -10.2641,5.1744 -43,-20.1982 c -74.9152,-35.1896 -92.0587,-42.1401 -104.5,-42.3676 -7.4638,-0.1364 -10.8422,1.0349 -20.2018,7.0043 -16.33339,10.417 -17.15849,17.2936 -14.32099,119.3498 l 1.7369,62.4728 -7.9759,7.6818 c -8.8919,8.5641 -13.9877,12.1179 -19.9267,13.8973 -3.5377,1.0599 -6.0416,0.7821 -21.4089,-2.3754 -9.5715,-1.9666 -32.9277,-7.2218 -51.9027,-11.6781 C 838.70831,1357.208 814.53811,1352 810.03271,1352 c -5.9436,0 -17.3706,6.1345 -24.2597,13.0236 -8.339,8.339 -10.3518,14.1603 -9.6732,27.9764 0.6232,12.6876 2.8802,24.4015 15.7032,81.5 5.4347,24.2 11.0941,49.8435 12.5763,56.9856 l 2.6949,12.9856 -3.1195,6.0167 c -1.7157,3.3091 -6.6157,10.4018 -10.8888,15.7615 l -7.7693,9.7448 h -9.5 c -5.225,10e-4 -40.7351,-0.9085 -78.9113,-2.0213 l -69.4114,-2.0232 -3.907,2.7076 c -9.5888,6.645 -15.5713,14.4486 -19.4271,25.3408 -4.19,11.8361 -3.4486,15.5491 9.6843,48.5 3.7266,9.35 12.0444,29.15 18.484,44 18.2202,42.0161 28.7137,68.5467 28.7388,72.66 0.043,7.0528 -11.0896,27.3817 -17.2149,31.4352 -5.5833,3.6949 -22.5471,7.5068 -70.6501,15.8755 -49.5312,8.6171 -76.4496,13.9914 -81.0765,16.187 -10.4478,4.9579 -19.3088,22.5882 -19.3088,38.418 0,10.7467 0.2738,11.1994 61.7991,102.1581 16.1494,23.8751 23.8369,36.6965 24.7549,41.2861 0.5253,2.6266 -0.234,3.9798 -6.1653,10.9878 -15.1946,17.953 -49.1384,54.8872 -103.3344,112.4379 -96.8474,102.8443 -126.7682,136.1456 -131.6771,146.5563 -3.4025,7.2159 -3.3472,20.9289 0.1327,32.9375 6.5237,22.5119 16.6173,37.1331 52.8413,76.5441 39.7302,43.2255 91.6625,95.6709 284.2111,287.0184 49.5339,49.225 101.5088,101.6484 115.4997,116.4964 36.9515,39.2153 61.1055,63.5036 63.1525,63.5036 5.3979,0 -1.5276,-25.7559 -16.341,-60.7725 -8.0119,-18.9389 -29.0093,-60.4765 -40.3025,-79.7275 -11.4399,-19.501 -20.1195,-32.673 -53.0449,-80.5 -14.9561,-21.725 -31.6956,-46.25 -37.1988,-54.5 -67.6334,-101.3905 -134.0446,-227.882 -140.1818,-267 -1.1161,-7.1137 -0.1304,-10.754 4.8873,-18.0493 4.9538,-7.2025 18.7231,-21.2233 23.7161,-24.1494 3.8364,-2.2483 4.6305,-2.3868 7.3138,-1.2753 2.9909,1.2388 3.5845,2.1141 15.2425,22.474 8.0583,14.0733 17.2442,27.0896 37.6369,53.3313 36.4779,46.9401 101.5839,128.0957 162.5885,202.6687 37.8059,46.2147 52.2642,64.5022 73.1309,92.5 17.0616,22.8923 25.9416,33.3633 27.4851,32.4094 2.4377,-1.5066 -3.099,-21.6781 -12.5988,-45.9007 -13.3469,-34.0321 -35.3409,-79.0817 -57.6138,-118.0087 -19.4771,-34.0407 -30.5217,-54.9299 -56.3091,-106.5 -24.7345,-49.4647 -35.6249,-73.0734 -35.6249,-77.2294 0,-1.4061 0.6981,-2.8245 1.5514,-3.1519 2.3051,-0.8846 15.9264,4.7561 44.4502,18.4072 46.7675,22.3824 70.4665,33.5998 73.8742,34.9668 6.0238,2.4164 18.7551,16.6184 38.8344,43.3206 36.3818,48.3819 74.603,91.6078 115.82919,130.9961 57.6344,55.065 103.6231,85.5768 158.4606,105.1327 10.175,3.6286 21.7057,7.7384 25.6237,9.133 l 7.1237,2.5357 17.0445,20.7225 c 24.2709,29.5084 35.4224,41.6244 70.5919,76.6978 43.9013,43.7813 63.3079,60.2789 96.1162,81.7088 47.2406,30.8568 87.5288,46.9542 128,51.1432 9.5595,0.9895 47.3107,-0.2673 56.5,-1.8809 z m -406,-377.8534 c -21.1429,-10.869 -60.0144,-41 -64.2946,-49.8376 -2.3274,-4.8057 -0.829,-6.8129 5.0798,-6.8047 14.5835,0.02 75.5436,11.5648 84.8718,16.0729 11.4923,5.5539 8.9634,22.2323 -5.6362,37.1706 -7.933,8.117 -10.1203,8.4883 -20.0208,3.3988 z m 1262.672,-10.6921 c -1.4468,-1.1381 -2.8749,-3.5214 -3.2235,-5.3795 -0.7837,-4.1776 0.9406,-24.3663 2.1876,-25.6133 0.5081,-0.5081 23.8603,-5.6247 51.8938,-11.3702 28.0336,-5.7456 52.9951,-10.9186 55.4701,-11.4957 7.6246,-1.7776 12.7617,-1.4117 14.0529,1.0009 0.9882,1.8464 0.5413,2.6586 -3.7148,6.751 -9.2788,8.9221 -37.9263,29.2993 -45.7943,32.5738 -10.3693,4.3156 -56.8809,15.5763 -64.3366,15.5763 -2.4511,0 -4.9181,-0.7713 -6.5352,-2.0433 z"
     id="path21"
     inkscape:connector-curvature="0" />
  <path
     inkscape:connector-curvature="0"
     style="fill:#010101"
     d="m 1521.6292,2342.2916 c -35.7714,-4.0543 -68.7755,-19.1181 -95.175,-43.4399 -7.6786,-7.0743 -8.4514,-7.5317 -12.7252,-7.5317 -8.9912,0 -33.1015,-14.2708 -58.653,-34.7165 -28.0111,-22.4139 -79.9468,-76.9872 -79.9468,-84.007 0,-3.6447 4.398,-2.9165 21.8024,3.6097 26.5801,9.9668 40.7832,13.1138 59.1856,13.1138 16.4604,0 16.7526,-0.6428 4.8525,-10.6755 -16.5048,-13.9148 -27.9789,-24.6759 -46.3405,-43.4612 -18.377,-18.8009 -21.259,-22.443 -20.1162,-25.421 0.9103,-2.3723 6.0718,-1.4027 19.2886,3.6232 20.7199,7.8792 49.8276,13.0699 57.232,10.2061 2.0037,-0.775 3.1234,-3.141 6.7181,-14.1954 20.0651,-61.7048 67.0044,-104.9342 128.3775,-118.2311 9.1362,-1.9794 13.3576,-2.2749 32.5,-2.2749 24.2725,0 32.7906,1.2413 51.749,7.5415 49.8327,16.5601 90.8315,58.2705 108.0694,109.9451 35.0003,104.9214 -28.1346,216.3618 -132.8184,234.4399 -11.1962,1.9335 -33.3897,2.6774 -44,1.4749 z"
     id="path37" />
  <path
     inkscape:connector-curvature="0"
     style="fill:#010101"
     d="m 2081.4812,2340.2955 c -72.1016,-7.5954 -132.019,-63.3347 -147.9165,-137.6022 -8.8911,-41.5366 -3.4829,-83.8547 15.5755,-121.8733 24.0663,-48.0086 65.6653,-80.3254 117.989,-91.6617 9.1194,-1.9758 13.3269,-2.2722 32,-2.2541 18.3476,0.018 22.9903,0.3433 31.6644,2.2198 60.4102,13.0692 107.6579,55.4697 127.8077,114.696 2.2454,6.6 4.4344,12.5625 4.8643,13.25 1.1741,1.8777 13.0365,1.5544 24.3781,-0.6643 9.7885,-1.9148 16.0381,-3.8062 34.7855,-10.5272 16.4292,-5.8899 19.1809,-3.8779 9.7117,7.1009 -9.4392,10.9439 -53.5249,53.6768 -57.2847,55.5269 -1.8849,0.9274 -4.2145,1.9258 -5.177,2.2186 -1.4201,0.432 -1.75,1.6957 -1.75,6.7036 v 6.1712 l 13.75,-0.5664 c 19.07,-0.7856 32.5733,-4.2629 58.75,-15.1288 11.3592,-4.7152 15.0112,-5.487 15.7795,-3.3345 0.7282,2.0406 -1.7863,6.0328 -10.3452,16.4248 -28.3389,34.4079 -61.8295,65.8044 -92.2322,86.465 -13.3834,9.0949 -21.9612,13.8602 -24.9489,13.8602 -1.2544,0 -6.726,4.5378 -14.1677,11.75 -14.3552,13.9123 -25.4684,21.9946 -41.3931,30.1043 -28.5652,14.5468 -60.2341,20.4506 -91.8404,17.1212 z"
     id="path60" />
  <g
     id="g83"
     transform="translate(-492.43014,-247.8029)">
    <ellipse
       ry="96.5"
       rx="67.999992"
       cy="2371.5"
       cx="2090"
       id="path64"
       style="opacity:1;vector-effect:none;fill:#ffffff;fill-opacity:1;fill-rule:evenodd;stroke-width:0.99999994;stroke-linecap:butt;stroke-linejoin:miter;stroke-miterlimit:4;stroke-dasharray:none;stroke-dashoffset:0;stroke-opacity:1" />
    <ellipse
       ry="96.5"
       rx="67.999992"
       cy="2367"
       cx="2650"
       id="path64-8"
       style="opacity:1;vector-effect:none;fill:#ffffff;fill-opacity:1;fill-rule:evenodd;stroke-width:0.99999994;stroke-linecap:butt;stroke-linejoin:miter;stroke-miterlimit:4;stroke-dasharray:none;stroke-dashoffset:0;stroke-opacity:1" />
  </g>
</svg>
