<?xml version="1.0" encoding="UTF-8" standalone="no"?>
<!-- Created with Inkscape (http://www.inkscape.org/) -->

<svg
   xmlns:dc="http://purl.org/dc/elements/1.1/"
   xmlns:cc="http://creativecommons.org/ns#"
   xmlns:rdf="http://www.w3.org/1999/02/22-rdf-syntax-ns#"
   xmlns:svg="http://www.w3.org/2000/svg"
   xmlns="http://www.w3.org/2000/svg"
   xmlns:inkscape="http://www.inkscape.org/namespaces/inkscape"
   version="1.1"
   width="240"
   height="192"
   viewBox="0 0 240 192"
   id="Layer_1"
   xml:space="preserve"
   style="overflow:visible"><defs
   id="defs16" /><metadata
   id="metadata3008"><rdf:RDF><cc:Work
       rdf:about=""><dc:format>image/svg+xml</dc:format><dc:type
         rdf:resource="http://purl.org/dc/dcmitype/StillImage" /><dc:title /></cc:Work></rdf:RDF></metadata>
<g
   id="g2985">
	<path
   d="M 0,12 C 0,5.3726 5.3721,0 12,0 h 216 c 6.627,0 12,5.3726 12,12 v 168 c 0,6.627 -5.373,12 -12,12 H 12 C 5.3721,192 0,186.627 0,180 V 12 z"
   inkscape:connector-curvature="0"
   id="path2987" />
	<path
   d="M 120,96"
   inkscape:connector-curvature="0"
   id="path2989" />
</g>
<g
   id="g2991"
   style="fill:#ffffff">
	<ellipse
   cx="120"
   cy="96"
   rx="116"
   ry="92"
   id="ellipse2993" />
	<path
   d="M 120,96"
   inkscape:connector-curvature="0"
   id="path2995" />
</g>
<g
   id="routenum"
   style="font-size:143px;font-style:normal;font-weight:normal;text-align:center;text-anchor:middle;fill:#000000;font-family:Roadgeek 2005 Series C"><path
     d="m 68.614,119.67 v 23.166 H 54.886 V 119.67 H 15.132 v -9.724 L 54.886,47.026 H 68.614 V 106.8 h 5.72 v 12.87 h -5.72 M 54.886,70.907 32.006,106.8 h 22.88 V 70.907"
     inkscape:connector-curvature="0"
     id="path2992" /><path
     d="m 147.99,94.789 c -6e-5,7.3407 -0.42906,13.585 -1.287,18.733 -0.76273,5.148 -2.1451,10.01 -4.147,14.586 -2.3834,5.72 -5.3864,9.9147 -9.009,12.584 -3.5274,2.574 -8.008,3.861 -13.442,3.861 -5.72,0 -10.391,-1.287 -14.014,-3.861 -3.5274,-2.6693 -6.4827,-6.864 -8.866,-12.584 -2.002,-4.6713 -3.432,-9.5333 -4.29,-14.586 -0.76268,-5.148 -1.144,-11.392 -1.144,-18.733 -8e-6,-7.2453 0.38132,-13.442 1.144,-18.59 0.85799,-5.2433 2.288,-10.153 4.29,-14.729 2.4786,-5.7199 5.4816,-9.8192 9.009,-12.298 3.6226,-2.5739 8.2463,-3.8609 13.871,-3.861 5.5293,9.7e-5 10.058,1.2871 13.585,3.861 3.5273,2.4788 6.4826,6.6734 8.866,12.584 0.95327,2.3834 1.7636,4.7667 2.431,7.15 0.76261,2.3834 1.3346,4.9097 1.716,7.579 0.4766,2.5741 0.81027,5.3864 1.001,8.437 0.1906,2.9554 0.28594,6.2444 0.286,9.867 m -13.156,0 c -5e-5,-2.6693 -0.0954,-5.1003 -0.286,-7.293 -0.0954,-2.1926 -0.28605,-4.1946 -0.572,-6.006 -0.19072,-1.9066 -0.47672,-3.7179 -0.858,-5.434 -0.38138,-1.7159 -0.81038,-3.4319 -1.287,-5.148 -1.2394,-4.2899 -2.8124,-7.3883 -4.719,-9.295 -1.8114,-1.9066 -4.147,-2.8599 -7.007,-2.86 -5.9107,8.4e-5 -9.9624,3.9564 -12.155,11.869 -1.144,3.6227 -1.9544,7.2931 -2.431,11.011 -0.38135,3.6227 -0.57202,8.1034 -0.572,13.442 -2e-5,2.574 0.0476,4.9574 0.143,7.15 0.19065,2.0974 0.38131,4.0994 0.572,6.006 0.28598,1.8114 0.61964,3.6227 1.001,5.434 0.38131,1.8114 0.81031,3.6704 1.287,5.577 2.1926,7.9127 6.2443,11.869 12.155,11.869 2.86,2e-5 5.1956,-0.95332 7.007,-2.86 1.9066,-1.9066 3.4796,-4.9096 4.719,-9.009 0.57195,-1.9066 1.0486,-3.718 1.43,-5.434 0.38128,-1.8113 0.66728,-3.6703 0.858,-5.577 0.28595,-1.9066 0.47662,-3.9086 0.572,-6.006 0.0953,-2.1926 0.14295,-4.6713 0.143,-7.436"
     inkscape:connector-curvature="0"
     id="path2994" /><path
     d="m 213.29,119.67 v 23.166 H 199.562 V 119.67 h -39.754 v -9.724 l 39.754,-62.92 H 213.29 V 106.8 h 5.72 v 12.87 h -5.72 M 199.562,70.907 176.682,106.8 h 22.88 V 70.907"
     inkscape:connector-curvature="0"
     id="path2996" /></g>
</svg>