<?xml version="1.0" encoding="UTF-8" standalone="no"?>
<!-- Created with Inkscape (http://www.inkscape.org/) -->

<svg
   xmlns:dc="http://purl.org/dc/elements/1.1/"
   xmlns:cc="http://creativecommons.org/ns#"
   xmlns:rdf="http://www.w3.org/1999/02/22-rdf-syntax-ns#"
   xmlns:svg="http://www.w3.org/2000/svg"
   xmlns="http://www.w3.org/2000/svg"
   xmlns:inkscape="http://www.inkscape.org/namespaces/inkscape"
   version="1.1"
   width="240"
   height="192"
   viewBox="0 0 240 192"
   id="Layer_1"
   xml:space="preserve"
   style="overflow:visible"><defs
   id="defs16" /><metadata
   id="metadata3008"><rdf:RDF><cc:Work
       rdf:about=""><dc:format>image/svg+xml</dc:format><dc:type
         rdf:resource="http://purl.org/dc/dcmitype/StillImage" /><dc:title /></cc:Work></rdf:RDF></metadata>
<g
   id="g2985">
	<path
   d="M 0,12 C 0,5.3726 5.3721,0 12,0 h 216 c 6.627,0 12,5.3726 12,12 v 168 c 0,6.627 -5.373,12 -12,12 H 12 C 5.3721,192 0,186.627 0,180 V 12 z"
   inkscape:connector-curvature="0"
   id="path2987" />
	<path
   d="M 120,96"
   inkscape:connector-curvature="0"
   id="path2989" />
</g>
<g
   id="g2991"
   style="fill:#ffffff">
	<ellipse
   cx="120"
   cy="96"
   rx="116"
   ry="92"
   id="ellipse2993" />
	<path
   d="M 120,96"
   inkscape:connector-curvature="0"
   id="path2995" />
</g>
<g
   id="routenum"
   style="font-size:143px;font-style:normal;font-weight:normal;text-align:center;text-anchor:middle;fill:#000000;font-family:Roadgeek 2005 Series C"><path
     d="m 73.007,109.23 c -5.9e-5,5.0527 -0.76272,9.724 -2.288,14.014 -1.5254,4.29 -3.6227,8.008 -6.292,11.154 -2.6694,3.146 -5.8154,5.6247 -9.438,7.436 -3.6227,1.8113 -7.579,2.717 -11.869,2.717 -4.29,0 -8.437,-0.715 -12.441,-2.145 -3.9087,-1.43 -7.6267,-3.5273 -11.154,-6.292 l 9.009,-9.724 c 2.3833,1.6207 4.576,2.8124 6.578,3.575 2.002,0.76268 4.1946,1.144 6.578,1.144 2.574,2e-5 4.9573,-0.52432 7.15,-1.573 2.1926,-1.144 4.0516,-2.717 5.577,-4.719 1.6206,-2.002 2.86,-4.3853 3.718,-7.15 0.95329,-2.7646 1.43,-5.8153 1.43,-9.152 -4.5e-5,-5.2433 -1.1917,-9.3426 -3.575,-12.298 -2.3834,-2.9553 -5.577,-4.4329 -9.581,-4.433 -4.1947,5.1e-5 -8.008,1.573 -11.44,4.719 L 21.813,94.787 24.244,47.025 H 69.289 V 60.467 H 36.971 L 35.97,80.63 c 2.3833,-0.85794 4.29,-1.3823 5.72,-1.573 1.5253,-0.28594 3.1936,-0.42894 5.005,-0.429 3.9086,6.4e-5 7.4836,0.76273 10.725,2.288 3.2413,1.4301 6.006,3.5274 8.294,6.292 2.2879,2.6694 4.0516,5.863 5.291,9.581 1.3346,3.718 2.0019,7.865 2.002,12.441"
     inkscape:connector-curvature="0"
     id="path2992" /><path
     d="m 143.52,94.789 c -6e-5,7.3407 -0.42906,13.585 -1.287,18.733 -0.76273,5.148 -2.1451,10.01 -4.147,14.586 -2.3834,5.72 -5.3864,9.9147 -9.009,12.584 -3.5274,2.574 -8.008,3.861 -13.442,3.861 -5.72,0 -10.391,-1.287 -14.014,-3.861 -3.5274,-2.6693 -6.4827,-6.864 -8.866,-12.584 -2.002,-4.6713 -3.432,-9.5333 -4.29,-14.586 -0.76268,-5.148 -1.144,-11.392 -1.144,-18.733 -8e-6,-7.2453 0.38132,-13.442 1.144,-18.59 0.85799,-5.2433 2.288,-10.153 4.29,-14.729 2.4786,-5.7199 5.4816,-9.8192 9.009,-12.298 3.6226,-2.5739 8.2463,-3.8609 13.871,-3.861 5.5293,9.7e-5 10.058,1.2871 13.585,3.861 3.5273,2.4788 6.4826,6.6734 8.866,12.584 0.95327,2.3834 1.7636,4.7667 2.431,7.15 0.76261,2.3834 1.3346,4.9097 1.716,7.579 0.4766,2.5741 0.81027,5.3864 1.001,8.437 0.1906,2.9554 0.28594,6.2444 0.286,9.867 m -13.156,0 c -5e-5,-2.6693 -0.0954,-5.1003 -0.286,-7.293 -0.0954,-2.1926 -0.28605,-4.1946 -0.572,-6.006 -0.19072,-1.9066 -0.47672,-3.7179 -0.858,-5.434 -0.38138,-1.7159 -0.81038,-3.4319 -1.287,-5.148 -1.2394,-4.2899 -2.8124,-7.3883 -4.719,-9.295 -1.8114,-1.9066 -4.147,-2.8599 -7.007,-2.86 -5.9107,8.4e-5 -9.9624,3.9564 -12.155,11.869 -1.144,3.6227 -1.9544,7.2931 -2.431,11.011 -0.38135,3.6227 -0.57202,8.1034 -0.572,13.442 -2e-5,2.574 0.0476,4.9574 0.143,7.15 0.19065,2.0974 0.38131,4.0994 0.572,6.006 0.28598,1.8114 0.61964,3.6227 1.001,5.434 0.38131,1.8114 0.81031,3.6704 1.287,5.577 2.1926,7.9127 6.2443,11.869 12.155,11.869 2.86,2e-5 5.1956,-0.95332 7.007,-2.86 1.9066,-1.9066 3.4796,-4.9096 4.719,-9.009 0.57195,-1.9066 1.0486,-3.718 1.43,-5.434 0.38128,-1.8113 0.66728,-3.6703 0.858,-5.577 0.28595,-1.9066 0.47662,-3.9086 0.572,-6.006 0.0953,-2.1926 0.14295,-4.6713 0.143,-7.436"
     inkscape:connector-curvature="0"
     id="path2994" /><path
     d="m 217.26,94.789 c -7e-5,7.3407 -0.42907,13.585 -1.287,18.733 -0.76273,5.148 -2.1451,10.01 -4.147,14.586 -2.3834,5.72 -5.3864,9.9147 -9.009,12.584 -3.5274,2.574 -8.008,3.861 -13.442,3.861 -5.72,0 -10.391,-1.287 -14.014,-3.861 -3.5274,-2.6693 -6.4827,-6.864 -8.866,-12.584 -2.002,-4.6713 -3.432,-9.5333 -4.29,-14.586 -0.76268,-5.148 -1.144,-11.392 -1.144,-18.733 -1e-5,-7.2453 0.38132,-13.442 1.144,-18.59 0.85799,-5.2433 2.288,-10.153 4.29,-14.729 2.4786,-5.7199 5.4816,-9.8192 9.009,-12.298 3.6226,-2.5739 8.2463,-3.8609 13.871,-3.861 5.5293,9.7e-5 10.058,1.2871 13.585,3.861 3.5273,2.4788 6.4826,6.6734 8.866,12.584 0.95327,2.3834 1.7636,4.7667 2.431,7.15 0.7626,2.3834 1.3346,4.9097 1.716,7.579 0.4766,2.5741 0.81027,5.3864 1.001,8.437 0.1906,2.9554 0.28593,6.2444 0.286,9.867 m -13.156,0 c -6e-5,-2.6693 -0.0954,-5.1003 -0.286,-7.293 -0.0954,-2.1926 -0.28605,-4.1946 -0.572,-6.006 -0.19072,-1.9066 -0.47672,-3.7179 -0.858,-5.434 -0.38139,-1.7159 -0.81039,-3.4319 -1.287,-5.148 -1.2394,-4.2899 -2.8124,-7.3883 -4.719,-9.295 -1.8114,-1.9066 -4.147,-2.8599 -7.007,-2.86 -5.9107,8.4e-5 -9.9624,3.9564 -12.155,11.869 -1.144,3.6227 -1.9544,7.2931 -2.431,11.011 -0.38136,3.6227 -0.57203,8.1034 -0.572,13.442 -3e-5,2.574 0.0476,4.9574 0.143,7.15 0.19064,2.0974 0.38131,4.0994 0.572,6.006 0.28597,1.8114 0.61964,3.6227 1.001,5.434 0.38131,1.8114 0.81031,3.6704 1.287,5.577 2.1926,7.9127 6.2443,11.869 12.155,11.869 2.86,2e-5 5.1956,-0.95332 7.007,-2.86 1.9066,-1.9066 3.4796,-4.9096 4.719,-9.009 0.57195,-1.9066 1.0486,-3.718 1.43,-5.434 0.38128,-1.8113 0.66728,-3.6703 0.858,-5.577 0.28595,-1.9066 0.47661,-3.9086 0.572,-6.006 0.0953,-2.1926 0.14294,-4.6713 0.143,-7.436"
     inkscape:connector-curvature="0"
     id="path2996" /></g>
</svg>