<?xml version="1.0" encoding="UTF-8" standalone="no"?>
<svg
   xmlns:dc="http://purl.org/dc/elements/1.1/"
   xmlns:cc="http://creativecommons.org/ns#"
   xmlns:rdf="http://www.w3.org/1999/02/22-rdf-syntax-ns#"
   xmlns:svg="http://www.w3.org/2000/svg"
   xmlns="http://www.w3.org/2000/svg"
   xmlns:sodipodi="http://sodipodi.sourceforge.net/DTD/sodipodi-0.dtd"
   xmlns:inkscape="http://www.inkscape.org/namespaces/inkscape"
   id="ballena_tras_shelly"
   width="5cm"
   height="5.5cm"
   viewBox="0 0 188.97639 207.87401"
   version="1.1"
   sodipodi:docname="shelly_cabalgando_ballena.svg"
   inkscape:version="0.92.3 (2405546, 2018-03-11)">
  <metadata
     id="metadata34">
    <rdf:RDF>
      <cc:Work
         rdf:about="">
        <dc:format>image/svg+xml</dc:format>
        <dc:type
           rdf:resource="http://purl.org/dc/dcmitype/StillImage" />
        <dc:title></dc:title>
      </cc:Work>
    </rdf:RDF>
  </metadata>
  <defs
     id="defs32" />
  <sodipodi:namedview
     pagecolor="#ffffff"
     bordercolor="#666666"
     borderopacity="1"
     objecttolerance="10"
     gridtolerance="10"
     guidetolerance="10"
     inkscape:pageopacity="0"
     inkscape:pageshadow="2"
     inkscape:window-width="1680"
     inkscape:window-height="1027"
     id="namedview30"
     showgrid="false"
     units="cm"
     inkscape:zoom="2.5834883"
     inkscape:cx="71.340785"
     inkscape:cy="136.01145"
     inkscape:window-x="1358"
     inkscape:window-y="-8"
     inkscape:window-maximized="1"
     inkscape:current-layer="ballena_tras_shelly" />
  <g
     id="g4003">
    <path
       sodipodi:nodetypes="ccccccccssccccsccccccccccccccscscccsscscccccccccccccccccccccsccccccccsccccccccccscccccccccccccscscsccccccccccsccccccccscsccccccccccccccccccccccssccczcccccccccccccccc"
       inkscape:connector-curvature="0"
       id="path3797"
       d="m 24.184091,153.30997 c -1.053418,-0.072 -1.326862,-0.0948 -1.714142,-0.14269 -1.082268,-0.13398 -3.171097,-0.67029 -4.499623,-1.15528 -1.411024,-0.51511 -2.548368,-1.10876 -4.067202,-2.12289 -0.28266,-0.18874 -0.539781,-0.34364 -0.57138,-0.3442 -0.0316,0 -0.210119,-0.13037 -0.39671,-0.28844 -0.468623,-0.39701 -2.077455,-1.46077 -2.634698,-1.74206 -0.120735,-0.0609 -0.23486,-0.13948 -0.253612,-0.17453 -0.068306,-0.12762 -0.5116762,-2.1141 -0.6713207,-3.00778 -0.047366,-0.26516 -0.1568812,-0.82761 -0.243367,-1.2499 -0.1829741,-0.89342 -0.2501381,-1.28097 -0.3032532,-1.74985 -0.113377,-1.00086 -0.1500175,-1.29678 -0.1967652,-1.58915 -0.083896,-0.52473 -0.1909191,-1.32189 -0.2514327,-1.87286 -0.03116,-0.28368 -0.06289,-0.52589 -0.07051,-0.53822 -0.00762,-0.0124 -0.039005,-0.31856 -0.069742,-0.68052 -0.030737,-0.36195 -0.072125,-0.77059 -0.091974,-0.90807 -0.1397527,-0.96807 -0.1545674,-1.5327 -0.1672404,-6.37447 -0.010841,-4.14431 -0.00558,-4.76544 0.042397,-5.00314 0.03013,-0.14927 0.054585,-0.43854 0.054345,-0.6428 -2.946e-4,-0.20428 0.023187,-0.55622 0.052061,-0.7821 0.028872,-0.22587 0.077941,-0.78028 0.1090392,-1.23202 0.031099,-0.45175 0.095658,-1.10259 0.1434629,-1.44631 0.083528,-0.60059 0.1564467,-1.26841 0.2339535,-2.14268 0.081476,-0.91906 0.1478773,-1.51189 0.2319961,-2.07126 0.1680372,-1.11743 0.3424257,-2.19752 0.426674,-2.64263 0.2816764,-1.48825 0.3566336,-1.8709 0.4861714,-2.48194 0.3773411,-1.77993 0.4987421,-2.34321 0.5618621,-2.60692 0.207356,-0.86636 0.643176,-2.55037 0.808675,-3.12475 0.104699,-0.36336 0.264956,-0.94188 0.356129,-1.2856 0.09117,-0.34372 0.203923,-0.74548 0.250559,-0.89278 0.04664,-0.14731 0.285404,-0.89457 0.530598,-1.66058 0.245192,-0.76601 0.520655,-1.641824 0.61214,-1.946263 0.09148,-0.304439 0.204554,-0.674055 0.251266,-0.821362 0.04671,-0.147308 0.142912,-0.476742 0.213778,-0.732074 0.409707,-1.47621 1.439977,-4.584627 2.106871,-6.356615 0.1539,-0.408928 1.536548,-3.654917 2.152415,-5.05315 0.636279,-1.444572 0.764554,-1.71805 1.348363,-2.874753 0.884169,-1.751809 1.476306,-2.883663 2.153362,-4.116119 0.115878,-0.210923 0.395444,-0.720982 0.621256,-1.133445 0.225813,-0.412464 0.578376,-1.047236 0.78347,-1.410591 0.205096,-0.363371 0.546838,-0.982059 0.759427,-1.374888 0.21259,-0.392829 0.579257,-1.05974 0.814816,-1.482028 0.752412,-1.348831 1.117063,-2.006271 1.366716,-2.464071 0.133888,-0.245522 0.518984,-0.928488 0.855771,-1.517732 0.336787,-0.589229 0.698367,-1.232043 0.803509,-1.428458 0.175819,-0.328433 1.068763,-1.832113 1.940411,-3.267581 0.850158,-1.400045 2.91978,-4.539703 3.786464,-5.74407 0.221219,-0.307429 0.77171,-1.073218 1.223323,-1.70173 0.451599,-0.628512 1.086739,-1.504343 1.411431,-1.946264 0.324706,-0.441922 0.764934,-1.052597 0.978287,-1.357036 0.213368,-0.304439 0.86284,-1.189461 1.443261,-1.966709 0.580436,-0.777262 1.199447,-1.612396 1.375609,-1.855871 0.176147,-0.243474 0.521003,-0.692275 0.766334,-0.997318 0.245345,-0.305057 0.74829,-0.964427 1.11767,-1.46528 1.344501,-1.823069 1.877568,-2.504312 3.178676,-4.06221 0.431199,-0.516305 1.165894,-1.216151 1.786747,-1.702054 l 0.110764,-0.08668 -0.0447,-0.297472 c -0.06739,-0.448343 -0.201983,-1.022387 -0.379559,-1.618774 -0.08771,-0.294629 -0.198697,-0.712439 -0.246626,-0.928503 -0.04794,-0.216048 -0.186296,-0.67404 -0.307459,-1.017762 -0.121162,-0.343721 -0.530812,-1.548987 -0.910312,-2.678352 -0.379514,-1.129366 -0.763976,-2.26231 -0.854385,-2.517642 -0.173068,-0.48882 -0.585192,-1.814482 -0.677207,-2.178398 -0.200848,-0.794289 -0.437458,-2.022341 -0.649221,-3.369575 -0.04741,-0.301611 -0.126185,-0.767645 -0.175072,-1.035628 -0.280798,-1.539501 -0.46515,-3.65633 -0.429652,-4.933298 0.04516,-1.623953 0.139634,-2.831226 0.290653,-3.713975 0.04873,-0.284797 0.112222,-0.662444 0.141106,-0.839215 0.191879,-1.174271 0.489276,-2.39965 0.858038,-3.535417 0.410431,-1.264106 0.72054,-2.025955 1.359128,-3.339007 0.705883,-1.4514412 1.122545,-2.2060695 2.297144,-4.1603659 0.318741,-0.530312 0.612251,-1.0284848 0.652271,-1.1070492 0.04,-0.078566 0.179741,-0.319616 0.310522,-0.5356691 0.130781,-0.2160545 0.35468,-0.5977366 0.497568,-0.8481855 0.142874,-0.2504488 0.330304,-0.5419348 0.4165,-0.6477483 0.450612,-0.5531807 1.054084,-0.7282953 1.748435,-0.507355 0.587359,0.1868965 0.777454,0.3509038 1.721776,1.4854746 0.237052,0.2847975 0.56005,0.6674531 0.7178,0.8503448 0.300315,0.3481922 0.845622,1.1311698 1.211408,1.7394011 0.118335,0.1967857 0.427781,0.7833429 0.68765,1.3034623 0.259868,0.5201193 0.86334,1.7090013 1.341054,2.6419582 1.316898,2.571835 1.595635,3.191607 2.102733,4.675476 0.29217,0.854952 0.947224,3.208364 1.556352,5.591522 0.436708,1.708556 0.66183,2.789951 1.052508,5.056054 0.228687,1.326386 0.307842,2.16779 0.359203,3.818204 0.01193,0.383005 0.0445,0.969553 0.07239,1.303466 0.0279,0.333897 0.06142,0.900988 0.07449,1.260205 0.01311,0.359217 0.037,0.661314 0.05319,0.671315 0.01617,0.01002 0.163215,-0.107833 0.326724,-0.261857 0.383344,-0.361087 0.579788,-0.510029 1.38237,-1.048148 0.767409,-0.514537 2.300165,-1.396981 2.813494,-1.619805 0.195045,-0.08466 0.529679,-0.250368 0.743621,-0.368232 0.813968,-0.448417 1.527512,-0.774479 3.06912,-1.402451 2.188958,-0.891677 3.512853,-1.346396 7.635954,-2.622716 2.164051,-0.669888 3.622026,-0.950147 6.039686,-1.160978 0.582277,-0.05078 1.718948,-0.162718 2.731908,-0.269044 2.195439,-0.230444 2.357167,-0.241119 3.303302,-0.218067 0.610232,0.01487 1.045365,0.04455 1.374887,0.09377 0.265157,0.03961 0.747259,0.104333 1.071348,0.143832 1.276201,0.155546 1.578711,0.238797 1.985179,0.54631 0.496288,0.375481 0.696473,0.704363 0.721881,1.185965 0.01912,0.362349 -0.04958,0.648353 -0.252785,1.052375 -1.957899,3.892901 -2.627065,5.179516 -3.250304,6.249479 -0.926351,1.590347 -1.650972,2.644504 -2.613369,3.801885 -0.874225,1.051359 -1.330493,1.516053 -2.982938,3.0381 -0.853163,0.785835 -2.838165,2.242617 -3.902884,2.86428 -1.022196,0.596844 -2.591715,1.367331 -3.900027,1.914538 -0.353546,0.147867 -0.771371,0.324515 -0.928502,0.392534 -2.20927,0.956415 -3.134119,1.270825 -5.226985,1.776982 -0.405246,0.09801 -1.443878,0.355608 -2.308088,0.572422 -0.864224,0.216815 -2.069474,0.512976 -2.678353,0.658104 -1.414288,0.337137 -1.731747,0.427487 -2.624783,0.746994 -0.402638,0.144066 -0.794303,0.27361 -0.870351,0.287883 -0.141945,0.02662 -0.863252,0.528515 -2.029618,1.412226 -1.816985,1.376684 -3.953169,3.441593 -6.332591,6.121345 -0.331365,0.37318 -0.844339,0.943674 -1.139956,1.267747 -0.843,0.924201 -1.087741,1.205545 -2.749304,3.160455 -0.788236,0.927384 -1.421594,1.740321 -3.102246,3.981804 -1.375903,1.835044 -2.821343,4.02848 -3.729991,5.660245 -0.296028,0.531609 -0.565779,1.005596 -1.38203,2.428368 -1.317429,2.29635 -2.798617,5.250522 -3.482585,6.945844 -0.232473,0.576209 -0.392094,0.951864 -1.001531,2.356946 -0.799768,1.843867 -1.317355,3.143709 -1.713499,4.30321 -0.114078,0.333898 -0.264094,0.761709 -0.333381,0.95067 -0.459376,1.253077 -1.36851,4.362952 -1.643535,5.621994 -0.204972,0.938357 -0.504977,2.650559 -0.594134,3.390792 -0.0213,0.176766 -0.06961,0.52227 -0.107376,0.767792 -0.03777,0.245507 -0.09422,0.751722 -0.125478,1.124902 -0.03124,0.373181 -0.08704,0.919562 -0.123991,1.214185 -0.03694,0.29462 -0.08496,0.83296 -0.106668,1.19633 -0.02173,0.36336 -0.06238,0.8776 -0.09033,1.14275 -0.02797,0.26516 -0.06783,0.75531 -0.08857,1.0892 -0.05531,0.88984 -0.100085,1.46841 -0.160313,2.07126 -0.149119,1.49274 -0.103208,3.13441 0.162301,5.80309 0.07077,0.71123 0.112989,1.02461 0.302406,2.24449 0.09662,0.62219 0.127216,0.77941 0.321053,1.64985 0.16189,0.72695 0.334811,1.35129 0.509515,1.83955 0.467418,1.30644 1.545864,3.26957 2.729728,4.969 0.593309,0.85169 1.004064,1.24286 2.196706,2.09191 0.731823,0.52099 0.824941,0.57325 1.562715,0.87686 0.333897,0.13743 0.72761,0.30029 0.874917,0.36193 0.920505,0.38518 1.949977,0.70111 2.517657,0.77262 0.235683,0.0297 0.685647,0.0932 0.99991,0.14121 0.314263,0.048 0.788324,0.10398 1.05348,0.12441 0.265156,0.0204 0.642814,0.0602 0.839214,0.0885 0.945442,0.13599 3.012029,0.20154 4.05324,0.12856 0.324073,-0.0227 1.563973,-0.0574 1.868412,-0.0771 1.698136,-0.10984 2.934494,-0.20397 4.512413,-0.25934 1.577919,-0.0554 2.237394,0.0392 2.896881,0.69141 0.490956,0.48552 -0.02488,-0.42986 0,0 0.01969,0.34024 -0.04263,0.56664 -0.277631,1.00868 -0.09596,0.1805 -0.257983,0.52101 -0.360057,0.7567 -0.232648,0.53722 -1.302125,2.67927 -1.693849,3.39258 -0.875492,1.59423 -2.57625,4.19177 -3.565805,5.44596 -0.616405,0.78126 -2.32242,2.7899 -2.79193,3.28718 -0.158516,0.16789 -0.383167,0.42502 -0.499204,0.57137 -0.27987,0.353 -0.94818,1.13563 -1.386066,1.62314 -0.194058,0.21605 -0.461791,0.53745 -0.594974,0.71422 -0.303128,0.40234 -0.977581,1.16974 -1.426586,1.62315 -0.864917,0.87341 -2.278498,1.84598 -4.663076,3.20829 -2.705984,1.54593 -4.618386,2.38337 -7.068863,3.09549 -3.313448,0.96291 -6.392525,1.38936 -10.804642,1.49648 -0.32408,0.008 -0.677622,0.008 -0.785648,0.001 z"
       style="fill:#72aafd;stroke-width:0.03571129" />
    <path
       inkscape:connector-curvature="0"
       id="path3908"
       d="m 13.256774,54.433545 c -0.198116,-0.03031 -0.480713,-0.137586 -0.905129,-0.343574 -0.237615,-0.11533 -0.45745,-0.352339 -0.510895,-0.55083 -0.04839,-0.179697 -0.0308,-0.290977 0.188184,-1.19089 l 0.147331,-0.605446 -0.06003,-0.291639 C 11.968546,50.733675 11.513287,50.115414 10.763188,49.613692 9.9417092,49.064202 9.1501901,48.810785 7.1457332,48.455442 5.4183674,48.149236 4.8081404,47.987656 4.0364262,47.632136 3.4278017,47.351765 2.865726,46.889899 2.623203,46.470896 2.3818023,46.053823 2.3492197,45.588997 2.5347965,45.209689 2.7047471,44.862315 3.1149818,44.538374 3.5758822,44.387591 4.0177053,44.243038 4.266995,44.219235 5.6637141,44.188216 c 1.1321345,-0.02514 1.4473951,-0.04348 1.785564,-0.103827 1.4083434,-0.251325 2.4504881,-1.033257 2.9430059,-2.208195 0.166855,-0.398043 0.260648,-0.77769 0.361624,-1.463705 0.04862,-0.330303 0.113875,-0.68846 0.145017,-0.795895 0.166426,-0.574146 0.513316,-0.960244 1.032122,-1.148793 0.172785,-0.06279 0.29723,-0.07846 0.642802,-0.08098 0.524713,-0.0038 0.737445,0.04161 1.749854,0.373549 1.262545,0.413966 1.411407,0.443189 2.249811,0.441598 0.65914,-0.0015 0.74177,-0.0087 1.071338,-0.0969 0.81906,-0.219157 1.254204,-0.531225 1.871557,-1.342203 0.281672,-0.370028 0.564003,-0.621324 0.853276,-0.759499 0.207105,-0.09892 0.28716,-0.116391 0.596545,-0.130222 0.42635,-0.01906 0.68526,0.03649 1.106823,0.237436 0.62597,0.298385 1.095318,0.845871 1.247997,1.455766 0.02891,0.115477 0.07026,0.440419 0.09189,0.722087 0.0226,0.294364 0.06855,0.606742 0.108056,0.73465 0.179995,0.582763 0.659459,1.018882 1.279509,1.163847 0.245127,0.05731 0.782465,0.02787 1.022238,-0.056 0.395629,-0.138382 0.720779,-0.4203 1.095114,-0.949507 0.359445,-0.508145 0.468527,-0.63732 0.706014,-0.835988 0.475687,-0.397955 0.995188,-0.586976 1.613254,-0.586976 0.527689,0 0.896069,0.09383 1.340744,0.341513 0.470331,0.261974 0.733952,0.504992 1.547098,1.426189 1.208572,1.369187 1.945872,1.995549 2.914579,2.476032 0.998386,0.495212 1.893352,0.700037 3.246438,0.742958 0.574541,0.01823 0.67371,0.0308 0.933854,0.118291 0.568269,0.191141 0.804254,0.413037 0.852846,0.801949 0.04526,0.362251 -0.04346,0.525024 -0.464387,0.852102 -0.407265,0.316458 -1.273272,0.67214 -2.44722,1.00508 -0.313238,0.08885 -2.064923,0.441583 -2.767625,0.557325 -0.353542,0.05823 -0.932064,0.16105 -1.285606,0.228465 -0.353542,0.06743 -0.79547,0.139752 -0.982061,0.160697 -0.370273,0.0416 -0.494579,0.06313 -1.660575,0.287691 -0.838878,0.161566 -1.253022,0.260163 -2.606924,0.620647 -1.194709,0.318108 -2.721118,0.803466 -4.178221,1.328608 -0.255336,0.09201 -0.641662,0.220792 -0.858503,0.28616 -0.216841,0.06537 -0.538243,0.185441 -0.714226,0.266806 -0.175984,0.08138 -0.601197,0.25732 -0.944917,0.390988 -0.715702,0.278309 -1.104055,0.447769 -1.660576,0.724591 -0.216053,0.107464 -0.682085,0.335296 -1.035627,0.506288 -1.340078,0.648117 -1.829737,0.926617 -2.4949,1.418957 -0.238384,0.176442 -0.537881,0.377673 -0.66555,0.447166 -0.127667,0.06949 -0.296404,0.170461 -0.374969,0.224385 -0.53225,0.365315 -1.165119,0.540048 -1.67402,0.462204 z"
       style="fill:#3a614f;stroke-width:0.03571129" />
    <path
       inkscape:connector-curvature="0"
       id="path3906"
       d="M 12.359581,68.488876 C 11.69266,68.365209 11.272153,68.222586 10.662806,67.913375 10.201539,67.679297 9.7335333,67.262533 9.4309061,66.81634 9.3218448,66.655555 9.1705194,66.44559 9.0946284,66.349776 8.7805492,65.953235 8.481323,65.306842 8.353423,64.748618 8.278984,64.423735 8.270606,63.615452 8.33851,63.309968 8.417989,62.952415 8.5767778,62.501788 8.8410692,61.883734 9.3729985,60.639819 9.4625891,60.318309 9.463629,59.649557 9.4643655,59.219801 9.453949,59.136434 9.368381,58.881765 9.1952793,58.366624 8.8920438,57.942657 8.0964756,57.103487 7.0795679,56.030844 6.757311,55.417901 6.8686215,54.768076 7.0140021,53.919347 7.8249094,53.18396 9.1856081,52.66683 c 0.8828259,-0.335503 1.6222089,-0.527027 3.6560749,-0.947061 2.99585,-0.618703 4.303678,-1.080818 5.352319,-1.891266 0.824079,-0.636893 1.413944,-1.542226 2.105393,-3.231421 0.346675,-0.846903 0.464463,-1.095312 0.694277,-1.464162 0.563186,-0.903904 1.392941,-1.468845 2.382951,-1.622456 0.368807,-0.05722 1.170325,-0.05012 1.59827,0.01414 1.041478,0.156425 1.930541,0.45777 3.954726,1.34045 2.331037,1.016466 3.533137,1.367332 4.856737,1.417529 0.892518,0.03385 1.560983,-0.09586 2.249811,-0.436531 0.486804,-0.240764 0.773513,-0.455001 1.182108,-0.883284 0.328685,-0.344532 0.56486,-0.668899 0.775239,-1.064733 0.466244,-0.877245 0.654743,-1.166675 0.951701,-1.461334 0.39713,-0.394037 0.859762,-0.586769 1.394162,-0.580789 0.657709,0.0074 1.189442,0.285335 1.543691,0.807001 0.18688,0.275187 0.278256,0.506215 0.455782,1.152387 0.199668,0.726756 0.365259,1.058886 0.690491,1.384963 0.290644,0.291403 0.552816,0.443542 0.971698,0.563909 0.309585,0.08895 0.506608,0.09402 2.391403,0.06145 l 0.821359,-0.01414 0.285349,0.100837 c 0.285975,0.101057 0.649144,0.298783 0.731867,0.398456 0.02428,0.02924 0.21512,0.153596 0.424099,0.27635 0.323373,0.189934 0.453362,0.297089 0.87281,0.719524 0.640443,0.645009 0.76821,0.900679 0.731438,1.463675 -0.0313,0.479202 -0.311463,0.840142 -0.801804,1.032963 -0.269017,0.105785 -1.127041,0.314838 -1.652033,0.402506 -0.283429,0.04734 -0.653042,0.125449 -0.821359,0.173584 -0.168319,0.04814 -0.547087,0.145378 -0.841705,0.216093 -0.737746,0.177075 -1.416992,0.380884 -2.981324,0.894508 -0.736858,0.241942 -1.556656,0.499837 -1.82177,0.573085 -0.670902,0.185368 -1.421004,0.496082 -2.593018,1.074117 -1.092141,0.538648 -1.929639,0.934011 -2.210226,1.04339 -0.664149,0.258926 -4.857451,2.430843 -5.216518,2.70189 -0.124645,0.09409 -1.073039,0.670167 -1.818606,1.10465 -0.274977,0.16024 -0.692799,0.409709 -0.928494,0.55438 -0.906521,0.556383 -2.158092,1.307368 -2.503481,1.502177 -0.894967,0.504787 -2.069858,1.207166 -2.667656,1.59481 -0.266756,0.172981 -0.874623,0.5636 -1.35082,0.868039 -0.476197,0.304439 -0.947795,0.61994 -1.047997,0.701113 -0.1002,0.08119 -0.494923,0.374697 -0.87716,0.65227 -0.382238,0.277558 -0.943642,0.685205 -1.247567,0.905878 -0.303925,0.220674 -0.754817,0.561921 -1.001982,0.758336 -1.523086,1.210332 -3.293192,2.473366 -3.887143,2.773621 -0.144967,0.07329 -0.37312,0.158163 -0.507007,0.188623 -0.289268,0.06578 -0.775149,0.0669 -1.122113,0.0025 z"
       style="fill:#499874;stroke-width:0.03571129" />
    <path
       inkscape:connector-curvature="0"
       id="path3904"
       d="m 16.142096,81.439822 c -0.09979,-0.03451 -0.245207,-0.110307 -0.323142,-0.168473 -0.19809,-0.147808 -0.769247,-0.635184 -1.047673,-0.893977 -0.12832,-0.119263 -0.54714,-0.465946 -0.930711,-0.770399 C 11.684012,77.895227 9.7141732,75.972677 8.5675451,74.460528 7.9538979,73.651258 7.4659339,72.708218 7.260368,71.93424 7.0880004,71.285269 7.0851739,70.336131 7.253668,69.684435 c 0.1820816,-0.70425 0.4970446,-1.314277 0.9835592,-1.904964 0.6707009,-0.814307 1.4578675,-1.369555 2.8724608,-2.026127 0.196412,-0.09117 0.951706,-0.401828 1.678431,-0.690345 2.510368,-0.99667 3.45583,-1.561522 4.230605,-2.527525 0.666729,-0.83129 0.983609,-1.58039 1.448571,-3.424389 0.704304,-2.793241 1.35942,-4.300058 2.529535,-5.818144 0.337502,-0.437856 1.159076,-1.273137 1.594038,-1.62063 1.21381,-0.969686 2.77162,-1.678958 4.356778,-1.983662 0.911595,-0.175234 1.183028,-0.19802 2.356945,-0.197888 1.229731,1.48e-4 1.541073,0.02881 2.5525,0.23505 0.652466,0.133034 1.33701,0.327166 2.625637,0.744578 1.656723,0.536661 2.293585,0.715798 3.041404,0.855505 0.858861,0.160431 1.397329,0.189875 1.851044,0.10119 0.16695,-0.03263 0.602496,-0.08103 0.96788,-0.107539 l 0.664333,-0.04819 0.264161,-0.165704 c 0.145288,-0.09113 0.52128,-0.367848 0.83554,-0.614931 0.314259,-0.247084 0.721096,-0.554837 0.904077,-0.683894 0.182985,-0.129058 0.488316,-0.389795 0.678515,-0.579434 0.337696,-0.336696 0.360902,-0.352324 0.988364,-0.66619 0.353402,-0.176765 0.731656,-0.379941 0.840564,-0.451496 1.399891,-0.919753 3.317716,-1.707532 4.602111,-1.890381 0.469083,-0.06678 1.332375,-0.02463 1.758168,0.08586 0.943185,0.244726 1.634723,0.725253 2.142946,1.489039 0.242504,0.36446 0.374199,0.624137 0.748194,1.475296 0.343696,0.782212 0.593135,1.229039 0.905388,1.621794 0.414272,0.521092 1.04943,0.949993 1.733962,1.170858 0.285098,0.092 0.358891,0.09961 1.214184,0.125228 1.023892,0.03068 1.11566,0.044 2.45214,0.356124 1.363672,0.318476 1.454947,0.346108 1.665154,0.50405 0.101199,0.07603 0.206283,0.138248 0.233524,0.138248 0.02724,0 0.145187,0.05098 0.262102,0.113298 0.404813,0.215769 0.706969,0.667574 0.784299,1.172758 0.05242,0.342455 -0.01455,0.703012 -0.203558,1.095989 -0.109206,0.227036 -0.195965,0.336858 -0.50886,0.644125 -0.755517,0.741897 -1.442538,1.071406 -3.452761,1.65601 -0.870506,0.253151 -0.935287,0.278456 -3.053317,1.193202 -0.441926,0.190861 -1.004379,0.423922 -1.249895,0.51791 -0.245514,0.094 -0.687442,0.27797 -0.982059,0.408825 -0.294619,0.130855 -0.742757,0.326209 -0.995864,0.434115 -0.253108,0.107907 -0.727175,0.329493 -1.053484,0.492414 -0.326307,0.16292 -0.802199,0.380397 -1.057535,0.483267 -0.255336,0.102869 -0.875523,0.386392 -1.378199,0.630029 -0.502672,0.243651 -0.925126,0.442997 -0.938782,0.442997 -0.01365,0 -0.470165,0.215813 -1.014458,0.479599 -0.544297,0.263786 -1.110154,0.527616 -1.257463,0.586312 -0.376204,0.149871 -2.657338,1.306308 -3.094965,1.569005 -0.199677,0.119866 -0.464833,0.269074 -0.589236,0.331585 -0.124401,0.0625 -0.342644,0.184071 -0.484982,0.270164 -0.142339,0.08608 -0.46374,0.26327 -0.714225,0.393742 -0.250486,0.130472 -1.066094,0.602485 -1.812459,1.048885 -0.746366,0.446414 -1.51773,0.907366 -1.714142,1.024346 -0.196413,0.116965 -0.549954,0.333175 -0.785649,0.480453 -0.743142,0.464369 -0.884711,0.549858 -1.214184,0.733267 -0.72377,0.402889 -1.289465,0.741117 -1.850826,1.106638 -2.021241,1.316059 -2.397236,1.554658 -3.380878,2.145374 -0.540133,0.324383 -1.070445,0.649016 -1.178473,0.721395 -0.108027,0.07239 -0.421393,0.266187 -0.696369,0.430639 -0.274978,0.164467 -0.944979,0.589097 -1.488894,0.94363 -0.543913,0.354533 -1.218856,0.788251 -1.499874,0.963809 -1.333882,0.833381 -2.362448,1.504755 -3.060853,1.997949 -2.602677,1.837887 -2.894452,2.0499 -3.645996,2.649395 -0.468958,0.374094 -0.71349,0.509941 -0.973207,0.540711 -0.133712,0.01583 -0.215866,0.05126 -0.30969,0.133535 -0.07024,0.06158 -0.169644,0.138264 -0.220909,0.170388 -0.156501,0.09808 -0.494108,0.179962 -0.663338,0.160873 -0.107478,-0.01208 -0.24115,0.0091 -0.424665,0.06737 -0.322982,0.102574 -0.668272,0.109998 -0.928638,0.02 z"
       style="fill:#6eb595;stroke-width:0.03571129" />
    <path
       inkscape:connector-curvature="0"
       id="path3902"
       d="m 26.037009,104.59552 c -0.01964,-0.008 -0.228552,-0.0336 -0.464247,-0.0576 -0.567075,-0.0576 -0.935461,-0.16279 -2.285523,-0.65238 -2.025174,-0.7344 -2.933602,-1.17822 -5.338837,-2.6083 -0.514206,-0.30573 -1.233924,-0.90549 -2.08435,-1.736944 -1.76816,-1.728699 -2.792861,-3.461846 -3.136154,-5.304372 -0.104124,-0.558858 -0.112636,-1.660002 -0.01712,-2.214102 0.162639,-0.943452 0.486172,-1.991277 1.026133,-3.323317 0.7525,-1.856372 0.90367,-2.239538 1.068529,-2.708297 0.317757,-0.903522 0.527777,-1.756611 0.604967,-2.45734 0.09411,-0.854326 0.0037,-2.112263 -0.230552,-3.2065 -0.192654,-0.90006 -0.250122,-1.147246 -0.373611,-1.607005 -0.569456,-2.120114 -0.755649,-3.215632 -0.755292,-4.444022 2.94e-4,-1.115564 0.154949,-2.054039 0.506338,-3.073097 0.689942,-2.00091 2.111493,-3.775107 4.051766,-5.056876 1.40487,-0.928076 2.969965,-1.614827 5.731662,-2.515006 4.664831,-1.5205 5.437946,-1.807677 7.160115,-2.659749 2.174378,-1.07581 3.692181,-2.257435 4.995024,-3.888685 0.883106,-1.10571 1.492018,-2.17065 2.248147,-3.931841 0.482505,-1.123872 0.712021,-1.612677 0.78585,-1.673671 0.03249,-0.02684 0.07548,-0.109718 0.09553,-0.184189 0.04672,-0.173511 0.501391,-0.854562 0.824861,-1.235578 0.409581,-0.482427 0.989675,-0.937532 1.561438,-1.225003 0.345934,-0.173923 0.914095,-0.351292 1.384638,-0.432259 0.579943,-0.09979 1.678562,-0.109866 2.264038,-0.02077 1.863914,0.283656 3.622368,1.040062 5.928075,2.549972 1.300234,0.851484 1.615029,1.030076 2.660492,1.509469 1.26702,0.580966 1.890057,0.6561 3.082152,0.371692 0.515607,-0.123018 0.833563,-0.234651 1.471037,-0.516481 2.021003,-0.893491 2.492346,-1.096873 2.8693,-1.238111 1.863576,-0.698285 3.358215,-0.737479 4.780974,-0.125361 0.497745,0.214134 0.837834,0.427178 1.165324,0.729952 0.132403,0.122415 0.366801,0.334266 0.520886,0.470777 0.37556,0.332704 0.75379,0.793523 1.129965,1.376669 0.41578,0.644538 0.564989,0.808239 0.797191,0.874653 0.100006,0.02859 0.776423,0.124565 1.503148,0.21325 1.697165,0.207108 2.804587,0.364932 3.172185,0.452055 0.461286,0.109336 1.682687,0.521445 2.109962,0.711909 1.053605,0.469657 1.813301,1.149191 2.140849,1.914965 0.328169,0.767218 0.648514,1.900236 0.756826,2.676792 0.07225,0.518057 0.05573,1.442804 -0.0382,2.137759 -0.105004,0.776909 -0.04368,0.89735 0.797744,1.56678 1.078946,0.858406 1.682106,1.612544 1.974371,2.468594 0.07055,0.206636 0.08535,0.321186 0.08535,0.660666 0,0.379042 -0.0075,0.424438 -0.09694,0.589229 -0.05332,0.09821 -0.125632,0.213485 -0.160701,0.256186 -0.135977,0.165497 -0.712568,0.585281 -0.884836,0.644183 -0.240031,0.08207 -0.556551,0.07513 -0.839505,-0.01837 -0.127668,-0.0422 -0.417479,-0.124153 -0.644028,-0.182127 -0.413755,-0.105889 -0.823382,-0.266776 -1.552216,-0.609688 -0.216053,-0.101647 -0.529421,-0.230601 -0.696371,-0.286558 -0.16695,-0.05596 -0.448176,-0.152256 -0.624948,-0.214001 -1.429758,-0.499469 -2.601439,-0.741736 -4.142509,-0.85658 -0.728568,-0.05428 -4.214901,-0.07647 -5.481685,-0.03488 -1.594876,0.05236 -2.888882,0.147529 -3.946098,0.290181 -2.405958,0.324663 -5.552776,1.278617 -7.971728,2.416644 -0.332454,0.156395 -0.771967,0.352706 -0.976689,0.436236 -0.204726,0.08353 -0.822191,0.368084 -1.372146,0.632356 -0.549954,0.264272 -1.192757,0.565368 -1.428452,0.669121 -1.020753,0.449316 -1.224783,0.544275 -2.076305,0.966342 -0.660275,0.327269 -1.071298,0.55952 -1.553441,0.87779 -0.955173,0.630515 -1.521059,1.039281 -2.141305,1.546763 -0.302417,0.247422 -0.911424,0.701142 -1.353352,1.008261 -0.441927,0.30712 -0.89189,0.633461 -0.999916,0.72521 -0.108027,0.09173 -0.316938,0.258881 -0.464247,0.371413 -0.582215,0.444749 -1.597752,1.437575 -2.104132,2.057058 -0.10436,0.127658 -0.352585,0.407573 -0.551609,0.622001 -0.199025,0.214443 -0.498459,0.56117 -0.665409,0.770502 -0.16695,0.209332 -0.489511,0.612398 -0.716799,0.895715 -0.48232,0.601204 -0.781898,1.012504 -1.116514,1.532889 -0.132612,0.206224 -0.334633,0.519589 -0.448936,0.696369 -0.114305,0.176766 -0.252211,0.409783 -0.306459,0.517807 -0.110154,0.219363 -0.644596,1.059357 -1.479619,2.325558 -0.305956,0.463942 -0.676811,1.03934 -0.82412,1.278661 -0.55298,0.898366 -0.715875,1.152711 -1.482019,2.313965 -1.316349,1.99521 -1.473893,2.268409 -1.591201,2.759246 -0.09766,0.408634 -0.280382,0.884772 -0.660567,1.72129 -0.19024,0.418591 -0.462724,1.066398 -0.605521,1.439578 -0.142796,0.373181 -0.388172,0.99991 -0.545279,1.39274 -0.518546,1.296557 -0.595113,1.585486 -1.026767,3.874672 -0.08703,0.46157 -0.199088,0.98184 -0.24901,1.15616 -0.04992,0.17432 -0.114934,0.50375 -0.144473,0.73209 -0.105703,0.81701 -0.215825,1.08945 -0.599481,1.48303 -0.417255,0.42804 -0.812053,0.58476 -1.541403,0.61186 -0.235695,0.009 -0.444605,0.01 -0.464247,0.002 z"
       style="fill:#7bd6ac;stroke-width:0.03571129" />
    <path
       inkscape:connector-curvature="0"
       id="path3862"
       d="m 45.785352,113.713 c -1.899061,-0.15514 -3.409772,-0.64739 -5.303127,-1.72795 -0.528853,-0.30181 -0.81611,-0.40809 -1.892699,-0.70017 -0.363362,-0.0986 -0.869569,-0.23605 -1.124905,-0.3055 -0.544117,-0.14798 -2.857197,-0.90573 -3.552589,-1.1638 -0.676967,-0.25124 -1.383946,-0.56221 -2.35763,-1.03707 -0.461569,-0.22511 -1.024022,-0.49848 -1.249897,-0.60749 -0.642353,-0.31006 -1.976135,-1.13486 -3.214016,-1.98756 -0.304438,-0.20971 -0.631481,-0.42854 -0.726759,-0.4863 -0.09528,-0.0578 -0.220678,-0.13512 -0.278664,-0.17192 -0.05799,-0.0368 -0.25268,-0.12163 -0.432654,-0.18855 -0.512084,-0.19039 -1.831619,-0.91231 -2.490164,-1.36241 -1.879466,-1.28454 -2.972889,-2.83413 -3.233157,-4.582017 -0.132075,-0.886966 0.0093,-2.090744 0.376256,-3.204276 0.31734,-0.962924 0.623142,-1.667484 1.484548,-3.420397 0.965462,-1.964662 1.253056,-2.617138 1.552076,-3.521249 0.626566,-1.894477 0.60881,-3.419867 -0.05553,-4.770098 -0.219959,-0.447048 -0.375039,-0.689918 -1.486874,-2.328562 -1.672625,-2.465162 -2.339861,-4.208885 -2.268739,-5.929026 0.08742,-2.114266 1.245127,-3.770379 3.399294,-4.8627 1.360818,-0.690036 2.920647,-1.13729 5.642385,-1.617891 3.067906,-0.541727 4.238376,-0.846446 5.621285,-1.463469 1.836433,-0.819374 3.119242,-2.053877 3.571004,-3.436541 0.232544,-0.711718 0.232996,-1.285069 0.0021,-2.635137 -0.232229,-1.357713 -0.201657,-1.996005 0.125418,-2.618419 0.313593,-0.596771 0.841369,-0.973251 1.676291,-1.195736 0.250145,-0.06665 0.384064,-0.07687 1.002921,-0.07658 0.810945,0 1.129811,0.05146 1.878817,0.300801 0.795195,0.264699 1.343582,0.523138 2.633888,1.241263 1.512514,0.841792 2.419046,1.242648 3.236645,1.431183 2.28287,0.526423 3.926823,-0.424468 4.229101,-2.44622 0.06791,-0.454176 0.04606,-1.272843 -0.05778,-2.165833 -0.129592,-1.114372 -0.137513,-2.168367 -0.01982,-2.637155 0.104971,-0.418134 0.222594,-0.696989 0.417908,-0.990778 0.525172,-0.789974 1.467458,-1.180329 2.381545,-0.98658 0.799749,0.169504 1.578643,0.71129 2.190695,1.5238 0.248327,0.329655 0.472018,0.692216 1.121228,1.817251 0.792709,1.373724 1.548257,2.074483 2.565043,2.379054 0.426118,0.127629 1.126613,0.135686 1.563736,0.01798 1.016641,-0.273772 1.843111,-1.01349 2.418823,-2.16492 0.200791,-0.401578 0.354831,-0.787499 0.665108,-1.666291 0.653406,-1.850642 1.102233,-2.534786 1.971724,-3.005489 0.364349,-0.19724 0.6003,-0.253505 1.068833,-0.254831 0.471179,-0.0015 0.724096,0.06437 1.172186,0.304542 0.821229,0.440199 1.425774,1.178532 2.169394,2.649528 0.65421,1.294126 0.947386,1.779161 1.405661,2.325557 0.828477,0.987773 1.920885,1.518129 2.854939,1.386038 0.752401,-0.106405 1.348473,-0.502077 2.28506,-1.516834 0.49706,-0.53856 0.756482,-0.78311 1.058271,-0.997656 1.416334,-1.006833 2.975651,-0.324824 4.018252,1.757494 0.10326,0.206239 0.362702,0.807546 0.576542,1.336253 0.588469,1.454955 0.936914,2.104236 1.472787,2.744354 0.469328,0.560625 1.147165,0.9972 1.763141,1.135567 0.252298,0.05668 0.813464,0.04597 1.108611,-0.02117 0.928102,-0.211085 1.638449,-0.757747 2.829413,-2.177396 1.118407,-1.33316 1.793787,-1.87608 2.571624,-2.067221 0.293436,-0.07212 0.811508,-0.07426 1.079374,-0.0046 0.781756,0.203617 1.446015,0.90903 1.614562,1.714602 0.08238,0.393728 0.06562,0.94634 -0.05358,1.767702 -0.179991,1.240027 -0.139633,1.815602 0.168488,2.403387 0.457167,0.872134 1.405701,1.230291 2.724117,1.028588 1.755518,-0.268573 2.764138,-0.493518 4.338928,-0.967726 1.10384,-0.332396 1.88341,-0.336431 2.52973,-0.01311 0.94225,0.471395 1.5597,1.691184 1.55901,3.079843 0,1.395921 -0.54787,2.631116 -1.69214,3.819929 -0.12002,0.124698 -0.59586,0.558342 -1.05743,0.963676 -2.74369,2.409411 -3.8615,3.86989 -5.757975,7.523187 -0.657352,1.266259 -2.036658,3.997534 -2.16414,4.285343 -0.318049,0.718051 -0.660298,1.559799 -0.793509,1.951641 -0.08247,0.242561 -0.189993,0.537441 -0.238953,0.65529 -0.154333,0.371575 -0.74667,2.063274 -0.787749,2.249805 -0.02162,0.09821 -0.04982,0.283022 -0.06264,0.410681 -0.01281,0.127673 -0.08655,0.416926 -0.163833,0.642814 -0.07729,0.225873 -0.189816,0.563335 -0.250074,0.749925 -0.19883,0.615653 -0.505876,1.268233 -0.833793,1.772003 -0.316635,0.486478 -1.367641,1.907261 -1.915864,2.589918 -0.183659,0.228701 -0.433997,0.542066 -0.556309,0.69637 -0.627304,0.791329 -1.010972,1.218949 -1.236064,1.377568 -0.112959,0.07961 -0.425027,0.344767 -1.518551,1.290327 -0.686957,0.593986 -1.146419,0.955486 -1.879728,1.47892 -0.294619,0.210304 -0.826741,0.599539 -1.182498,0.864975 -0.590739,0.440749 -1.270193,0.943679 -2.370776,1.754819 -0.64621,0.47626 -0.841879,0.60044 -1.246531,0.79111 -0.208083,0.098 -0.479893,0.25062 -0.604017,0.33906 -0.12413,0.0884 -0.336629,0.20595 -0.472229,0.26113 -0.135596,0.0552 -0.532209,0.27533 -0.881362,0.48923 -1.686084,1.03294 -3.016657,1.70949 -5.437994,2.76507 -1.846427,0.80495 -2.091003,0.91395 -3.588985,1.59946 -2.588633,1.18464 -3.364204,1.52545 -4.571045,2.00858 -0.816703,0.32695 -1.003952,0.38326 -1.410597,0.42425 -0.449855,0.0453 -1.030528,0.19792 -2.10242,0.55244 -0.857032,0.28343 -2.277156,0.65079 -3.289985,0.85105 -0.590115,0.11669 -1.353079,0.24498 -3.214017,0.54045 -0.441926,0.0702 -1.341851,0.21334 -1.999832,0.31815 -0.657981,0.10481 -1.626419,0.24859 -2.152085,0.31949 -0.646797,0.0873 -1.293267,0.20338 -1.999833,0.35926 -1.736937,0.38319 -2.548877,0.48706 -3.740278,0.47847 -0.422286,-0.003 -0.928494,-0.0187 -1.124905,-0.0347 z"
       style="fill:#c7b6b6;stroke-width:0.03571129" />
    <path
       inkscape:connector-curvature="0"
       id="path3912"
       d="m 93.41431,80.110949 c -0.363798,-0.07415 -0.787441,-0.427811 -0.957564,-0.79943 -0.167471,-0.365801 -0.21107,-0.65638 -0.206725,-1.37776 0.0032,-0.547501 0.01989,-0.746302 0.09679,-1.160621 0.117981,-0.635493 0.252356,-1.142003 0.487936,-1.839139 0.424512,-1.256243 0.54999,-1.3943 1.446545,-1.591466 1.206606,-0.265347 2.017451,-0.669238 3.517567,-1.752118 0.245507,-0.177223 0.526733,-0.376009 0.624947,-0.44173 0.215636,-0.144318 0.765406,-0.673437 1.206017,-1.160695 0.177605,-0.196415 0.999347,-1.04535 1.826117,-1.886508 1.30517,-1.327931 1.55024,-1.560992 1.8603,-1.769145 0.4844,-0.325178 0.66687,-0.38081 1.23204,-0.375641 0.41294,0.0038 0.47682,0.01399 0.85218,0.137012 0.34674,0.113577 0.42825,0.155394 0.56023,0.287368 0.26783,0.267836 0.28293,0.558901 0.0541,1.042831 -0.0964,0.203838 -0.1224,0.228716 -0.43631,0.417721 -1.02635,0.617952 -1.36204,0.874682 -3.01213,2.303626 -0.98224,0.850585 -1.93574,1.822745 -2.840448,2.896051 -0.407544,0.483488 -1.058591,1.199713 -1.485357,1.634078 -0.258454,0.26305 -1.020958,1.164112 -1.658793,1.960243 -0.585871,0.731234 -1.233178,1.679076 -1.532815,2.244473 -0.26087,0.492252 -0.428945,0.731469 -0.650193,0.925424 -0.3188,0.279488 -0.633167,0.37701 -0.9844,0.305426 z"
       style="fill:#906e6e;stroke-width:0.03571129" />
    <path
       inkscape:connector-curvature="0"
       id="path3910"
       d="m 31.054448,93.183279 c -0.254023,-0.05201 -0.645766,-0.188476 -0.757798,-0.263978 -0.181389,-0.122238 -0.27783,-0.292272 -0.27783,-0.489836 0,-0.148456 0.06666,-0.304822 0.503926,-1.182126 0.580363,-1.164406 1.023132,-1.985842 1.440039,-2.671621 0.294779,-0.484887 0.497302,-0.839494 0.879397,-1.539811 0.113791,-0.208566 0.324571,-0.566354 0.468402,-0.7951 0.143831,-0.228745 0.445856,-0.708948 0.671168,-1.067105 0.22531,-0.358171 0.65207,-1.020825 0.948354,-1.472571 0.296284,-0.451747 0.648881,-0.998128 0.783551,-1.214192 0.358221,-0.574691 0.659031,-0.990557 1.293564,-1.788308 0.311253,-0.391312 0.645691,-0.815927 0.743197,-0.9436 0.273014,-0.357464 1.029003,-1.182258 1.931201,-2.10696 0.450335,-0.461571 1.051734,-1.086636 1.336443,-1.389043 0.57894,-0.614917 1.512335,-1.483103 1.946102,-1.810166 0.15713,-0.118467 0.464228,-0.338434 0.68244,-0.488805 0.218211,-0.150371 0.504323,-0.370897 0.635803,-0.490042 0.396348,-0.359188 0.7601,-0.634802 1.342249,-1.01704 1.400867,-0.919783 4.751449,-2.707193 6.624445,-3.533872 0.915161,-0.403935 2.226913,-0.920549 3.080273,-1.213146 0.806543,-0.276541 1.017281,-0.353369 2.647958,-0.96537 2.663295,-0.999542 3.973845,-1.352145 6.239997,-1.678899 2.884511,-0.415895 4.029458,-0.55382 5.048204,-0.608127 0.559775,-0.02984 1.243946,-0.07067 1.520384,-0.09072 0.341289,-0.02474 0.736738,-0.0248 1.232039,0 2.176318,0.108289 3.154458,0.23692 4.782661,0.628939 1.910507,0.45998 2.358758,0.580215 2.999748,0.8046 0.383004,0.134066 0.913316,0.307429 1.178472,0.385244 1.125928,0.330421 2.705231,0.905275 3.588986,1.306367 1.271926,0.577254 2.065681,0.75131 4.802262,1.052979 2.342908,0.258278 2.453347,0.266335 3.625605,0.2647 1.016156,-0.0015 1.289884,-0.01513 2.821196,-0.141106 2.749598,-0.226212 3.735531,-0.531771 6.294824,-1.95089 1.35666,-0.752238 1.89225,-0.993724 2.48356,-1.119733 0.32304,-0.06884 0.77544,-0.06722 0.94516,0.0034 0.46125,0.191834 0.7233,0.613857 0.72587,1.169017 0.001,0.317724 -0.086,0.57151 -0.2633,0.763859 -0.1857,0.201467 -0.25612,0.200774 -0.30744,-0.0029 -0.073,-0.289931 -0.42629,-0.654612 -0.7107,-0.73359 -0.3477,-0.09656 -0.84369,-0.01918 -1.27579,0.199065 -0.41726,0.210761 -0.74337,0.48586 -1.74985,1.476137 -0.53031,0.521783 -1.2113,1.181551 -1.51331,1.466135 -0.30203,0.284584 -0.917443,0.906099 -1.367599,1.381132 -0.899913,0.94961 -1.332202,1.345267 -1.861954,1.704087 -0.397881,0.269501 -1.322039,0.742634 -1.774448,0.908456 -0.166941,0.06118 -0.480321,0.177355 -0.696369,0.25813 -1.075516,0.402138 -1.968359,0.680933 -2.512384,0.784524 -0.307326,0.0585 -0.848051,0.162125 -1.201583,0.230262 -1.497081,0.288517 -2.581167,0.387557 -4.053237,0.370323 -0.749866,-0.0088 -1.274379,0.0032 -1.683607,0.03865 -0.498692,0.04314 -0.75459,0.04444 -1.589152,0.0081 -0.94271,-0.04109 -1.239627,-0.06089 -2.27142,-0.151417 -0.769699,-0.06753 -1.726563,-0.07918 -2.972966,-0.03618 -1.384127,0.04775 -2.225013,0.116568 -3.946098,0.322939 -0.324079,0.03887 -0.910637,0.104018 -1.303462,0.144789 -1.293245,0.134213 -3.870833,0.483325 -4.606757,0.62396 -1.078552,0.206092 -3.083806,0.562437 -3.517562,0.625095 -0.440447,0.06362 -2.326923,0.495271 -3.017605,0.690478 -1.86589,0.527351 -2.624588,0.770885 -5.640731,1.810549 -0.485594,0.167398 -0.943005,0.344105 -1.650675,0.637718 -0.140956,0.05848 -0.615023,0.23773 -1.053484,0.398323 -0.438462,0.160593 -1.030218,0.385745 -1.315016,0.500323 -0.284797,0.114579 -0.78297,0.31229 -1.107049,0.439374 -1.119136,0.438829 -2.104144,0.859761 -4.606758,1.968683 -0.671565,0.297575 -2.306314,1.115917 -3.267583,1.635742 -1.728098,0.934497 -2.216947,1.215679 -2.839047,1.632959 -0.16695,0.111986 -0.632984,0.4213 -1.035629,0.68737 -0.402644,0.266069 -0.924922,0.618687 -1.160616,0.783581 -0.235695,0.164894 -0.749937,0.52311 -1.142762,0.796028 -0.392823,0.272918 -0.890996,0.626523 -1.107049,0.785791 -0.57194,0.42161 -1.01899,0.724429 -1.464164,0.991824 -0.736139,0.442128 -1.992493,1.345517 -2.449668,1.761441 -0.46998,0.427561 -0.830954,0.585915 -1.175028,0.51548 z"
       style="fill:#473636;stroke-width:0.03571129" />
    <path
       sodipodi:nodetypes="cccssszccccccccccccccc"
       inkscape:connector-curvature="0"
       id="path3898"
       d="m 100.61116,110.40418 c -1.149093,-0.55142 -1.265262,-2.02174 -1.784542,-3.05161 -0.396821,-1.04598 -0.701702,-2.11273 -0.94198,-3.20214 -0.651048,-1.87758 -0.834648,-3.86571 -1.320168,-5.790717 -0.437444,-1.734399 -0.98608,-3.423138 -1.429121,-5.158921 -0.244388,-0.957519 -0.835826,-2.859655 -2.239612,-1.814497 -1.577297,1.174349 -2.601216,1.568238 -3.782156,2.497478 -1.180946,0.929239 -2.044813,1.652165 -2.985967,2.201728 -0.672121,-0.244461 -1.507175,-0.72163 -0.531203,-1.336385 1.044577,-0.736477 2.289917,-1.560579 3.266898,-2.386212 -0.881151,-0.851705 0.04414,-2.039354 0.520296,-2.845766 0.497908,-1.313054 1.709315,-1.973941 2.911782,-2.521029 1.835309,-0.956621 3.622955,-2.033889 5.530113,-2.834851 1.23356,0.108834 1.490998,1.816235 1.627995,2.814348 0.152035,1.931623 0.257865,3.874677 0.414201,5.801013 -0.02262,1.481453 0.164764,2.958959 0.131739,4.440045 0.123375,1.645596 0.141685,3.290236 0.177385,4.937246 0.10153,1.52859 0.24757,3.05345 0.24106,4.58821 0.10396,1.21968 0.46144,2.43309 0.29449,3.66424 l -0.0491,0.0195 -0.0521,-0.0217 z"
       style="fill:#996528;stroke-width:0.03571129" />
    <path
       id="path3896"
       d="m 51.356315,109.64225 c -0.46967,-0.15899 -1.247911,-0.54817 -1.990747,-0.99552 -0.75217,-0.45299 -0.803584,-0.48925 -0.757102,-0.5341 0.01859,-0.0179 0.266807,-0.0656 0.551604,-0.1059 1.317499,-0.18649 1.59576,-0.2279 2.214101,-0.32953 0.787993,-0.12951 1.933779,-0.34407 2.62478,-0.49154 1.324478,-0.28266 2.120861,-0.46196 2.160361,-0.48636 0.09038,-0.0559 0.05005,0.0719 -0.09679,0.30665 -0.170507,0.27258 -0.633361,1.12275 -0.878996,1.61453 -0.07653,0.15323 -0.173487,0.29992 -0.215467,0.326 -0.04198,0.0261 -0.389696,0.10645 -0.772699,0.17861 -0.743635,0.14009 -1.797943,0.3966 -2.219546,0.53999 -0.141374,0.0481 -0.266281,0.0871 -0.277571,0.0867 -0.0113,0 -0.165161,-0.0497 -0.341931,-0.10952 z"
       style="fill:#996528;stroke-width:0.03571129"
       inkscape:connector-curvature="0" />
    <path
       id="path3822"
       d="m 71.763987,102.80425 c -0.264424,-0.16828 -0.557103,-0.3476 -0.6504,-0.3985 -0.09329,-0.0509 -0.169628,-0.11113 -0.169628,-0.13384 0,-0.0227 0.172754,-0.11561 0.383896,-0.20644 0.495095,-0.21292 2.394329,-0.9794 2.946182,-1.18898 0.09167,-0.0348 0.07973,0.0383 -0.05901,0.36151 -0.06683,0.15569 -0.221237,0.52072 -0.343134,0.8112 l -0.221632,0.52815 -0.237172,0.10901 c -0.374994,0.17234 -1.028755,0.42385 -1.101773,0.42385 -0.03661,0 -0.282905,-0.13768 -0.547329,-0.30596 z"
       style="fill:#996528;stroke-width:0.03571129"
       inkscape:connector-curvature="0" />
    <path
       inkscape:connector-curvature="0"
       id="path3864"
       d="m 54.986494,109.24503 c -0.03473,-0.13424 -0.03103,-0.16422 0.02992,-0.24246 0.03825,-0.0491 0.15301,-0.25801 0.255021,-0.46425 1.086581,-2.19672 2.696263,-4.2686 4.316329,-5.55573 0.245516,-0.19506 0.591023,-0.44939 0.767793,-0.56519 0.176772,-0.1158 0.362362,-0.23839 0.412425,-0.27245 0.05006,-0.034 0.178623,-0.10603 0.28569,-0.15999 0.107067,-0.054 0.235019,-0.12653 0.284335,-0.1613 0.04932,-0.0348 0.226089,-0.11927 0.392825,-0.18781 0.166737,-0.0685 0.42133,-0.17463 0.565764,-0.23577 0.144434,-0.0611 0.284628,-0.11115 0.311543,-0.11115 0.02692,0 0.173899,-0.0497 0.32663,-0.11052 0.15273,-0.0608 0.350008,-0.12354 0.438393,-0.13948 0.08839,-0.0159 0.273192,-0.0539 0.410679,-0.0845 0.702141,-0.15595 1.64677,-0.20525 2.46408,-0.12858 1.409155,0.13218 2.701139,0.53146 4.213932,1.30227 0.728463,0.37118 1.673448,0.94245 1.708021,1.03255 0.01055,0.0274 -0.0079,0.0744 -0.04093,0.10428 -0.06933,0.0627 -0.640065,0.30948 -0.715825,0.30948 -0.02795,0 -0.26949,-0.11812 -0.536755,-0.26246 -1.968404,-1.06312 -3.640009,-1.53535 -5.431951,-1.53454 -0.978505,0 -1.478717,0.0715 -2.517078,0.35746 -0.604261,0.16643 -0.795039,0.24013 -1.394617,0.53884 -0.60853,0.30318 -0.83754,0.43328 -1.244345,0.70699 -0.172933,0.11636 -0.352331,0.23658 -0.398662,0.26716 -0.04633,0.0306 -0.322046,0.24984 -0.612701,0.48725 -1.433984,1.17122 -2.859048,2.92023 -3.903182,4.79045 -0.284614,0.50979 -0.328684,0.54615 -0.387338,0.31942 z m 18.763046,-6.70256 c -0.02444,-0.0395 0.354695,-0.95534 0.716276,-1.73016 0.789251,-1.691242 1.593141,-3.007831 2.507295,-4.106354 0.465433,-0.559284 1.230171,-1.286747 1.648773,-1.568385 0.0491,-0.03304 0.153559,-0.105285 0.232125,-0.160549 0.428544,-0.301449 1.179609,-0.664392 1.61271,-0.77931 0.769446,-0.204192 0.817787,-0.21079 1.529883,-0.208699 0.561238,0.0016 0.742583,0.01572 1.049184,0.08144 1.045372,0.224091 2.070077,0.709155 3.002625,1.421344 0.529793,0.404612 0.540897,0.417058 0.594365,0.666189 0.02604,0.121354 0.04792,0.240735 0.04861,0.265274 0.0026,0.09144 -0.09771,0.03844 -0.339409,-0.179344 -1.209562,-1.08995 -2.479291,-1.701759 -3.834998,-1.847829 -1.094951,-0.117996 -2.301422,0.219348 -3.377276,0.944308 -0.995894,0.671094 -2.046813,1.848388 -2.903717,3.25294 -0.553973,0.908 -1.101594,1.973355 -1.529344,2.975175 -0.148189,0.34708 -0.304141,0.66927 -0.346555,0.71596 -0.06874,0.0757 -0.482961,0.29006 -0.560444,0.29006 -0.01665,0 -0.0392,-0.0144 -0.0501,-0.0321 z"
       style="fill:#0f0f0f;stroke-width:0.03571129" />
    <path
       inkscape:connector-curvature="0"
       id="path3816"
       d="m 60.337703,115.66019 c -0.08839,-0.007 -0.433893,-0.0313 -0.767794,-0.0531 -0.3339,-0.0218 -0.719583,-0.0638 -0.857071,-0.0934 -0.137489,-0.0296 -0.354435,-0.0762 -0.482102,-0.10353 -0.447102,-0.0958 -1.129392,-0.491 -1.620001,-0.93837 -0.311134,-0.28373 -0.392672,-0.31923 -0.597275,-0.26007 -0.331906,0.096 -0.52586,0.1368 -0.782473,0.1648 -0.06874,0.008 -0.1732,0.0241 -0.232123,0.0369 -0.05892,0.0128 -0.492816,0.0318 -0.964205,0.0422 -1.118945,0.0248 -1.682302,-0.0287 -2.964038,-0.28143 -0.873743,-0.17229 -1.714506,-0.3997 -2.553358,-0.6906 -0.265156,-0.092 -0.570487,-0.1964 -0.678514,-0.2321 -0.108026,-0.0357 -0.276763,-0.0994 -0.374969,-0.14154 -0.09821,-0.0421 -0.210696,-0.09 -0.249979,-0.10647 -0.03928,-0.0164 -0.14758,-0.0636 -0.240661,-0.10483 -0.09308,-0.0412 -0.179993,-0.075 -0.193136,-0.075 -0.04796,0 -0.882967,-0.38981 -1.905292,-0.88946 -0.16695,-0.0816 -0.428446,-0.21615 -0.581102,-0.29903 -0.152655,-0.0829 -0.425846,-0.22892 -0.607092,-0.32453 -0.181245,-0.0956 -0.35367,-0.19494 -0.383169,-0.22072 -0.0295,-0.0258 -0.09378,-0.0638 -0.142845,-0.0844 -0.08445,-0.0356 -0.215361,-0.11349 -0.44978,-0.26772 -0.149038,-0.0981 -0.312372,-0.20126 -0.657205,-0.41523 -0.646235,-0.40102 -1.099023,-0.70022 -1.335466,-0.88251 l -0.246273,-0.18986 -0.217974,0.0218 c -0.119885,0.0121 -0.237547,0.0279 -0.26147,0.0353 -0.02392,0.007 -0.05343,-0.003 -0.06557,-0.0222 -0.03376,-0.0546 0.05442,-0.13973 0.144775,-0.13973 0.112362,0 0.144862,-0.0544 0.195024,-0.32648 0.06872,-0.37271 0.0697,-0.37199 -0.551672,-0.40136 -0.286396,-0.0135 -0.789345,-0.0487 -1.117663,-0.0783 -0.32832,-0.0295 -1.00673,-0.0683 -1.507582,-0.0862 -0.980043,-0.0351 -1.256801,-0.0657 -1.789083,-0.19767 -0.414253,-0.10272 -0.727391,-0.21807 -1.095223,-0.40343 -0.202169,-0.10189 -0.343065,-0.14631 -0.525961,-0.16585 -0.42248,-0.0451 -0.717792,-0.18025 -1.089355,-0.49837 -0.108027,-0.0925 -0.285565,-0.21586 -0.394527,-0.27413 -0.108963,-0.0583 -0.333943,-0.22213 -0.499958,-0.3641 -0.166014,-0.14199 -0.374159,-0.30493 -0.462544,-0.36209 -0.08839,-0.0572 -0.413369,-0.28548 -0.722186,-0.50738 -0.308816,-0.22191 -0.849379,-0.59583 -1.201249,-0.83092 -0.351871,-0.23511 -0.817878,-0.55301 -1.035571,-0.70643 -0.526014,-0.37074 -0.825053,-0.54003 -1.004591,-0.56874 -0.09662,-0.0154 -0.263854,-0.10221 -0.481505,-0.24978 -0.18341,-0.12437 -0.523812,-0.34086 -0.75645,-0.4811 -0.6136,-0.3699 -1.859838,-1.15308 -2.052825,-1.29009 -0.924586,-0.65637 -1.099833,-0.81273 -1.224647,-1.09263 -0.06158,-0.13811 -0.06384,-0.17242 -0.02234,-0.339263 0.08963,-0.360263 0.373815,-1.178811 0.446914,-1.287278 0.04636,-0.0688 0.18062,-0.163774 0.359193,-0.254109 0.497573,-0.251678 3.267165,-1.433362 3.891999,-1.660576 0.564342,-0.205208 1.42037,-0.575472 1.67806,-0.725828 0.504783,-0.294511 0.697907,-0.553319 0.870445,-1.166498 0.07039,-0.250132 0.07134,-0.27171 0.01579,-0.35711 -0.06245,-0.09602 -0.385596,-0.436119 -1.494105,-1.572525 -1.211481,-1.241956 -1.814803,-1.891221 -2.067872,-2.22531 l -0.102872,-0.135804 0.135696,-0.442791 c 0.120169,-0.392107 0.175926,-0.507128 0.487247,-1.005139 0.193352,-0.309299 0.371878,-0.581054 0.396725,-0.603899 0.02485,-0.02284 0.213913,-0.07702 0.420144,-0.120382 0.206233,-0.04336 0.672266,-0.140768 1.035629,-0.216461 0.363362,-0.07571 1.199007,-0.25981 1.856986,-0.409135 0.657981,-0.149325 1.485591,-0.334413 1.839133,-0.411314 0.922301,-0.200627 1.140664,-0.252283 1.183912,-0.280062 0.0541,-0.03473 0.345755,-0.497348 0.475111,-0.753608 0.132353,-0.262195 0.139182,-0.406601 0.02429,-0.513668 -0.04642,-0.04326 -0.116703,-0.142918 -0.156191,-0.221483 -0.03949,-0.07857 -0.244131,-0.44014 -0.454767,-0.803511 -1.283053,-2.213379 -1.554238,-2.709357 -1.70175,-3.112438 -0.09206,-0.251561 -0.106937,-0.336947 -0.09545,-0.547973 0.0078,-0.143654 0.0422,-0.310728 0.08084,-0.392814 0.107146,-0.227641 0.60574,-0.694646 0.892158,-0.835649 0.299565,-0.147484 0.500737,-0.164511 2.340917,-0.198138 0.677622,-0.01237 1.850738,-0.03862 2.606925,-0.05828 1.270813,-0.03305 1.386379,-0.04129 1.526749,-0.108952 0.170719,-0.08228 0.677635,-0.609217 0.710866,-0.738937 0.02163,-0.08444 -0.140831,-0.738805 -0.413836,-1.666881 -0.08089,-0.27498 -0.228109,-0.821052 -0.327157,-1.213484 -0.09905,-0.392446 -0.209937,-0.802229 -0.246419,-0.910636 -0.09598,-0.285202 -0.178619,-0.798252 -0.17875,-1.109672 -1.08e-4,-0.21845 0.01739,-0.304866 0.09192,-0.454442 0.107691,-0.216108 0.429842,-0.490926 0.752857,-0.642254 0.201392,-0.09434 0.22832,-0.0976 0.779975,-0.09418 0.669707,0.0041 0.893494,0.03971 3.605546,0.572791 l 1.758712,0.345696 0.264053,-0.18254 c 0.34267,-0.236905 0.489958,-0.38492 0.558193,-0.560964 0.0685,-0.176736 0.07101,0.03351 -0.02723,-2.284978 -0.01913,-0.451481 -0.03478,-1.167455 -0.03478,-1.591069 0,-0.75262 0.0021,-0.774361 0.09044,-0.951701 0.110266,-0.221278 0.405103,-0.507128 0.652229,-0.632356 0.230238,-0.116671 0.607999,-0.173305 0.870755,-0.130546 0.399726,0.06506 0.756596,0.205783 2.904057,1.14517 0.726725,0.317902 1.437214,0.627467 1.578865,0.687915 l 0.257547,0.109925 0.487633,-0.192394 c 0.345532,-0.136334 0.496288,-0.213633 0.517332,-0.265274 0.01634,-0.04008 0.111654,-0.603192 0.21182,-1.251353 0.320283,-2.072494 0.439724,-2.710771 0.574867,-3.071977 0.139686,-0.373342 0.543372,-0.614033 1.090517,-0.650193 0.159709,-0.01061 0.346797,-0.0085 0.415752,0.0043 0.157198,0.02949 0.85497,0.497333 2.569346,1.722704 0.731746,0.523021 1.363915,0.966195 1.404819,0.984827 0.09163,0.04176 0.89386,-0.190567 0.985688,-0.285438 0.03262,-0.0337 0.207116,-0.438931 0.387761,-0.900502 0.806321,-2.06024 1.043602,-2.62901 1.228111,-2.943862 0.128882,-0.219923 0.342311,-0.319051 0.722992,-0.335798 0.199941,-0.0088 0.356635,0.006 0.49996,0.04715 0.196011,0.05631 0.242611,0.09411 0.763843,0.619541 0.305302,0.307768 0.909966,0.946119 1.343698,1.41856 0.751644,0.81874 1.033474,1.09403 1.220769,1.192466 0.04626,0.0243 0.209589,0.04674 0.362966,0.04986 0.231383,0.0047 0.296111,-0.0069 0.380147,-0.0683 0.164043,-0.119808 0.427506,-0.496082 0.940492,-1.34319 0.630112,-1.040534 1.064936,-1.693776 1.236489,-1.857624 0.181607,-0.173437 0.362213,-0.244963 0.679008,-0.268927 0.229902,-0.01738 0.281098,-0.009 0.449116,0.07316 0.340754,0.166706 0.539783,0.433585 1.422199,1.906982 0.750351,1.25287 1.091268,1.782534 1.165748,1.811109 0.03103,0.01193 0.207247,0.0407 0.391604,0.06398 0.316369,0.03996 0.338867,0.03841 0.40063,-0.02747 0.03599,-0.03838 0.40127,-0.439403 0.811736,-0.89115 1.421127,-1.564084 1.648715,-1.767716 1.975605,-1.767716 0.235495,0 0.574842,0.123799 0.749744,0.273507 0.20863,0.178578 0.373394,0.543819 0.931808,2.065586 0.583887,1.591172 0.627843,1.67999 0.898451,1.815337 0.111282,0.05566 0.265956,0.109733 0.343717,0.120161 0.126354,0.01695 0.171275,-0.0015 0.42261,-0.170476 0.154677,-0.10421 0.570492,-0.408339 0.924034,-0.675867 1.419307,-1.073969 1.669507,-1.201185 2.040103,-1.037249 0.494517,0.218745 0.592787,0.431391 0.85069,1.840789 0.245388,1.340995 0.375206,1.999732 0.431258,2.18831 0.06059,0.203853 0.183273,0.319978 0.478817,0.453249 l 0.151741,0.06843 1.219854,-0.613606 c 1.263842,-0.635715 1.458799,-0.721498 1.639806,-0.721498 0.309374,0 0.634713,0.224224 0.792022,0.545866 0.07001,0.143169 0.09514,0.260502 0.108658,0.507615 0.02081,0.380294 0.05344,2.041209 0.05392,2.745076 v 0.495256 l 0.243652,0.249985 0.243651,0.25 0.62234,-0.169755 c 1.656835,-0.451938 1.924701,-0.519383 2.145861,-0.54021 l 0.237892,-0.02242 0.232266,0.228038 c 0.295469,0.290093 0.326503,0.392255 0.297059,0.977964 -0.02034,0.404377 -0.119586,1.212453 -0.197372,1.607005 -0.248305,1.259263 -0.231367,1.69354 0.07494,1.921844 0.08458,0.06304 0.14417,0.07136 0.464251,0.06487 0.201953,-0.0041 0.543981,-0.02296 0.76003,-0.04192 0.216048,-0.01894 0.684468,-0.04492 1.040931,-0.05772 l 0.648101,-0.02327 0.163377,0.09575 c 0.185839,0.108908 0.328036,0.321613 0.363563,0.543848 0.01414,0.08807 0,0.256863 -0.03386,0.423422 -0.03151,0.152344 -0.05728,0.32805 -0.05728,0.390458 0,0.06241 -0.0337,0.209332 -0.07487,0.326503 -0.04118,0.117156 -0.193307,0.622812 -0.338066,1.123665 -0.144759,0.500854 -0.297236,1.006509 -0.338831,1.123651 -0.133447,0.375831 -0.413406,1.437339 -0.447711,1.697546 l -0.0212,0.160711 0.619262,0.203499 c 0.340599,0.111928 0.779958,0.245625 0.976373,0.297104 0.35007,0.09173 0.657204,0.185044 2.821196,0.856992 0.589222,0.182967 1.272212,0.391298 1.517732,0.462955 0.84002,0.245154 1.52194,0.58621 2.07212,1.036351 0.26261,0.214855 0.82677,0.947076 0.9682,1.256611 0.0555,0.121546 0.11669,0.291109 0.13589,0.376819 0.0346,0.154509 0.12572,0.370219 0.40353,0.955634 0.0792,0.166956 0.25346,0.632989 0.38717,1.035628 0.37411,1.126434 0.65393,1.946559 0.7981,2.339094 0.0721,0.196414 0.22832,0.662448 0.3471,1.035628 0.11878,0.373181 0.28791,0.903493 0.37586,1.178473 0.088,0.274981 0.30993,1.118657 0.49327,1.874843 0.32677,1.347815 0.67218,2.683905 1.0894,4.213938 0.2081,0.76312 0.3369,1.2942 0.51819,2.13651 0.0521,0.24213 0.15856,0.67601 0.23654,0.9642 0.14364,0.53086 0.56931,2.23078 0.77953,3.11305 0.0632,0.26515 0.18448,0.67493 0.26958,0.91063 0.0851,0.2357 0.22195,0.65204 0.30415,0.9252 0.17126,0.56913 0.25425,0.79696 0.46184,1.26797 0.16765,0.38043 0.27405,0.78051 0.22153,0.83304 -0.11594,0.11594 -0.7631,-0.48332 -1.2143,-1.12441 -0.52091,-0.74018 -0.84168,-1.21564 -1.33436,-1.97795 -0.62625,-0.96896 -0.81919,-1.30145 -1.17996,-2.03334 -0.1639,-0.33252 -0.38149,-0.71705 -0.48354,-0.85454 -0.19389,-0.26126 -0.37942,-0.61466 -0.77805,-1.48202 -0.13089,-0.28479 -0.33807,-0.73476 -0.4604,-0.99991 -0.12234,-0.26516 -0.24777,-0.55786 -0.27876,-0.65043 -0.031,-0.0926 -0.1071,-0.24212 -0.16914,-0.33231 -0.062,-0.0902 -0.23147,-0.40815 -0.37648,-0.70659 -0.39395,-0.810744 -1.12072,-2.213264 -1.33599,-2.578181 -0.10428,-0.176766 -0.31008,-0.538339 -0.45734,-0.803495 -0.14725,-0.265156 -0.43671,-0.755302 -0.64323,-1.089199 -0.36705,-0.593457 -0.99051,-1.742279 -1.07062,-1.972836 -0.11389,-0.327712 -1.40821,-2.322052 -2.045463,-3.151736 -0.24891,-0.324073 -0.493136,-0.653523 -0.542729,-0.732089 -0.04958,-0.07855 -0.192482,-0.24916 -0.317563,-0.379101 -0.181774,-0.188859 -0.302539,-0.273964 -0.601881,-0.424173 -0.205974,-0.103355 -0.437739,-0.210216 -0.515038,-0.237495 -0.271843,-0.09592 -1.860275,-0.309623 -2.629673,-0.353796 -0.412242,-0.02367 -0.412345,-0.02365 -0.528308,0.07393 -0.139766,0.117584 -0.213884,0.259146 -0.345563,0.659988 -0.05485,0.166956 -0.131297,0.375861 -0.169888,0.464252 -0.03859,0.08837 -0.178592,0.482103 -0.311126,0.874917 -0.286498,0.84923 -0.412964,1.1604 -0.765626,1.883931 -0.351661,0.721483 -1.283552,2.324526 -1.770118,3.044978 -0.09313,0.137895 -0.211733,0.330745 -0.263535,0.428533 -0.121473,0.229246 -0.592897,0.874446 -0.880692,1.205324 -0.123461,0.141946 -0.35359,0.425263 -0.51137,0.629558 -0.157795,0.204324 -0.368541,0.461438 -0.468332,0.571392 -0.09979,0.109939 -0.275746,0.317003 -0.391017,0.460112 -0.115286,0.14311 -0.442378,0.484946 -0.726889,0.759661 l -0.517276,0.499465 -0.267352,0.52594 c -0.147045,0.28927 -0.409452,0.75093 -0.583123,1.02589 -0.313538,0.49644 -0.433242,0.65562 -1.144865,1.52239 -0.203669,0.24807 -0.44262,0.54343 -0.531006,0.65635 -0.503753,0.64359 -1.903082,1.60747 -3.046737,2.09864 -0.941492,0.40434 -1.728055,0.56747 -2.738492,0.56796 -0.963866,0 -1.714475,-0.17158 -2.596732,-0.5952 -0.61963,-0.29751 -0.920612,-0.51072 -1.458256,-1.03299 -0.4843,-0.47045 -0.520888,-0.54208 -0.359403,-0.70357 0.06316,-0.0632 0.220272,-0.11957 0.606697,-0.21785 0.757503,-0.19263 1.195116,-0.37523 2.381624,-0.99372 1.287546,-0.67117 2.228589,-1.26253 3.040974,-1.911 0.487077,-0.38881 0.878931,-0.90874 0.684882,-0.90874 -0.193355,0 -1.634166,0.38465 -2.371208,0.63303 -0.935297,0.31519 -2.476496,0.95574 -3.137908,1.30416 -0.337302,0.17768 -1.222437,0.73711 -1.602767,1.01299 -0.06651,0.0482 -0.08035,0.0495 -0.08035,0.007 0,-0.16011 0.668758,-1.83252 0.984688,-2.46251 0.104862,-0.2091 0.334536,-0.63679 0.510379,-0.950401 1.220619,-2.176999 2.341111,-3.536833 3.607876,-4.378507 1.453057,-0.965443 2.990517,-1.188179 4.556962,-0.660165 0.737673,0.248645 1.693858,0.800889 2.303378,1.330287 0.147309,0.127954 0.341935,0.297266 0.432507,0.376245 l 0.164671,0.14361 0.271692,-0.186664 c 0.766833,-0.526821 1.033683,-0.725077 1.157452,-0.859938 0.299269,-0.326091 1.222882,-1.75695 1.928163,-2.987122 0.319978,-0.558091 0.836945,-1.607006 0.792051,-1.607006 -0.02154,0 -0.13928,0.08437 -0.261636,0.187474 -1.734296,1.461496 -3.119081,2.521751 -4.745235,3.633162 l -0.385329,0.263344 -0.578876,-0.292434 c -2.341934,-1.183113 -4.446096,-0.977743 -6.489101,0.633358 -0.751133,0.592336 -1.606272,1.55971 -2.275815,2.574511 -0.436378,0.661388 -0.467175,0.710554 -0.659977,1.05348 -0.08834,0.157132 -0.202369,0.359527 -0.253393,0.449773 -0.05102,0.09025 -0.244469,0.468493 -0.429886,0.840553 -0.185417,0.37204 -0.358952,0.69333 -0.385639,0.71395 -0.05379,0.0416 -2.571705,1.07995 -2.798291,1.154 -0.07856,0.0257 -0.224745,0.0849 -0.324848,0.13156 -0.100101,0.0467 -0.208678,0.0849 -0.241278,0.0849 -0.03261,0 -0.328352,-0.13554 -0.657214,-0.30118 -1.389294,-0.69982 -2.702974,-1.09645 -4.079786,-1.23174 -0.690699,-0.0679 -1.958897,10e-4 -2.517646,0.13769 -1.317734,0.32123 -1.841864,0.52882 -2.87476,1.13867 -1.305834,0.77101 -2.656398,2.0354 -3.799373,3.55694 -0.190602,0.25374 -0.433828,0.59387 -0.540502,0.75585 -0.203701,0.30931 -0.247476,0.33936 -0.570428,0.39143 -0.07856,0.0127 -0.191055,0.0363 -0.249979,0.0525 -0.05892,0.0162 -0.219625,0.0542 -0.357112,0.0843 -0.137489,0.0301 -0.354435,0.0777 -0.482104,0.10572 -0.280991,0.0617 -0.487482,0.10393 -1.071338,0.21935 -0.245516,0.0485 -0.526741,0.10488 -0.624947,0.12522 -0.917658,0.19006 -3.701467,0.69389 -4.079769,0.73836 -0.325238,0.0382 -0.308772,0.0829 0.140683,0.38137 0.452667,0.30064 1.359615,0.833 1.623332,0.95288 0.638678,0.29033 0.891634,0.39196 0.975489,0.39196 0.05264,0 0.215037,0.041 0.360877,0.091 0.710875,0.24388 1.4302,0.37658 2.044485,0.37718 0.402611,0 0.466418,-0.0195 0.50931,-0.1589 0.04985,-0.16199 0.303668,-0.64813 0.384053,-0.73557 0.04625,-0.0503 0.217229,-0.32451 0.379946,-0.6093 0.823608,-1.44153 1.821568,-2.75358 2.880127,-3.78664 0.632252,-0.61699 0.97785,-0.90802 1.716082,-1.44507 0.324165,-0.23581 1.175562,-0.72568 1.49325,-0.85914 0.09821,-0.0413 0.283012,-0.12407 0.410679,-0.18401 0.127668,-0.06 0.408895,-0.16899 0.624948,-0.24233 2.473282,-0.83942 5.05989,-0.56444 7.820774,0.83144 0.488797,0.24713 0.738999,0.40324 0.949517,0.59245 0.09012,0.081 0.246807,0.21648 0.348184,0.30104 0.101374,0.0846 0.184318,0.1751 0.184318,0.20119 0,0.0261 -0.0924,0.0841 -0.205341,0.1288 -0.266838,0.10574 -1.133326,0.53606 -2.394471,1.18914 -0.555864,0.28784 -1.026953,0.52336 -1.046868,0.52336 -0.01991,0 -0.223993,0.11037 -0.453505,0.24527 -0.22951,0.13491 -0.674416,0.37801 -0.988675,0.54024 -1.00987,0.52134 -1.91503,1.00396 -2.446224,1.30429 -0.284797,0.16102 -0.726725,0.40198 -0.982061,0.53545 -0.543814,0.28429 -1.232039,0.6949 -1.232039,0.73508 0,0.0574 0.07528,0.0713 0.187691,0.0348 0.382268,-0.12432 0.743298,-0.22321 1.034067,-0.28325 0.518321,-0.10702 0.955578,-0.21232 1.867269,-0.44969 0.618263,-0.16097 1.541738,-0.47711 2.08911,-0.71518 0.166952,-0.0726 0.391932,-0.16487 0.499959,-0.205 0.43451,-0.16147 1.433654,-0.67354 1.804463,-0.92481 0.385153,-0.26099 0.565234,-0.39311 1.347537,-0.98875 0.211408,-0.16096 0.415137,-0.29265 0.45273,-0.29265 0.03759,0 0.09915,0.0392 0.136792,0.087 0.06065,0.0771 0.07082,0.17096 0.08937,0.82496 0.02039,0.71917 0.01788,0.75627 -0.0986,1.4575 -0.06573,0.39576 -0.144695,0.91239 -0.175468,1.14809 -0.07411,0.56763 -0.124107,0.74873 -0.399291,1.4463 -0.256211,0.64948 -0.40032,0.95371 -0.463183,0.97784 -0.02269,0.009 -0.170831,0.20606 -0.329197,0.43856 -0.287268,0.42174 -0.341632,0.4893 -0.961698,1.19512 -0.316438,0.36019 -0.640478,0.65944 -0.854872,0.78947 -0.05621,0.0341 -0.198615,0.12639 -0.316462,0.2051 -0.117847,0.0787 -0.238372,0.15244 -0.267835,0.16382 -0.02946,0.0113 -0.08571,0.0383 -0.12499,0.0598 -1.178886,0.64454 -2.425056,1.00671 -4.213931,1.22469 -0.406663,0.0495 -2.73941,0.10009 -3.124739,0.0677 z"
       style="fill:#e89f4a;stroke-width:0.03571129" />
    <path
       inkscape:connector-curvature="0"
       id="path3818"
       d="m 49.497034,136.38374 c -0.458756,-0.47034 -1.036505,-1.12427 -1.82163,-2.06186 -0.421293,-0.50311 -2.132731,-2.31036 -2.959082,-3.12474 -0.139509,-0.13748 -0.550641,-0.56325 -0.913629,-0.94612 -0.630306,-0.66483 -0.985256,-1.0341 -2.143336,-2.22974 -0.284059,-0.29328 -0.540577,-0.56008 -0.570038,-0.59292 -0.02946,-0.0328 -0.183244,-0.19461 -0.341737,-0.35955 -0.158494,-0.16492 -0.697763,-0.73377 -1.198379,-1.26408 -0.500615,-0.53031 -0.957496,-1.0127 -1.015292,-1.07197 -0.0578,-0.0593 -0.289891,-0.30781 -0.515764,-0.55231 -0.225874,-0.24452 -0.539241,-0.582 -0.696371,-0.74996 -0.157128,-0.16796 -0.558881,-0.60182 -0.892781,-0.96413 -1.333217,-1.44668 -1.723607,-1.9076 -1.921349,-2.26848 -0.09125,-0.16655 -0.324934,-0.54799 -0.519303,-0.84769 -0.419941,-0.64746 -0.4524,-0.70933 -0.661694,-1.26107 -0.161795,-0.42652 -0.232345,-0.78178 -0.237178,-1.19435 -0.0067,-0.57232 0.03287,-1.11732 0.105017,-1.44631 0.127003,-0.57911 0.386784,-2.23929 0.502926,-3.21401 0.12264,-1.02928 0.213955,-1.42441 0.515412,-2.23029 0.361257,-0.96574 0.70503,-1.7392 1.34771,-3.03222 0.557813,-1.1223 0.75469,-1.48063 1.088907,-1.98199 0.38289,-0.57435 0.436889,-0.63796 0.877968,-1.03437 0.769082,-0.69117 1.278885,-0.95201 1.763619,-0.90235 0.318411,0.0326 0.641081,0.15777 0.920023,0.3568 0.342956,0.24475 0.534199,0.44992 0.921286,0.98848 0.189515,0.26367 0.483524,0.64011 0.653351,0.83652 0.511311,0.59135 0.529232,0.64967 0.532925,1.73415 l 0.0027,0.80566 0.12952,0.24782 c 0.15666,0.29976 0.194564,0.53441 0.135905,0.84134 -0.05029,0.26315 -0.08311,0.31713 -0.192841,0.31713 -0.110788,0 -0.153897,0.06 -0.436518,0.60708 -0.518101,1.00302 -0.712183,1.33499 -0.915577,1.56608 -0.545629,0.61989 -1.484509,2.39462 -1.684183,3.18353 -0.03231,0.12766 -0.131302,0.49728 -0.219976,0.82137 l -0.161226,0.58922 0.07899,0.30356 c 0.106191,0.40806 0.372475,1.11976 0.654707,1.74985 0.229776,0.51298 0.981497,2.03349 1.209376,2.44622 0.06507,0.11785 0.154336,0.29461 0.198378,0.39283 0.04404,0.0982 0.0958,0.20668 0.115019,0.24104 0.01922,0.0344 0.05078,0.0906 0.07014,0.125 0.01936,0.0344 0.06514,0.11873 0.101728,0.18748 0.03659,0.0687 0.12687,0.22944 0.200623,0.35711 0.07375,0.12766 0.191145,0.33658 0.260877,0.46424 0.06973,0.12767 0.156452,0.27479 0.192713,0.32692 0.03626,0.0521 0.06593,0.10356 0.06593,0.11428 0,0.0107 0.04646,0.0886 0.103245,0.17304 0.05678,0.0845 0.12938,0.2098 0.161325,0.27855 0.06959,0.14976 0.366317,0.64411 1.206037,2.0093 0.11157,0.18138 0.255204,0.41818 0.319188,0.5262 0.06398,0.10803 0.143287,0.23658 0.176231,0.28569 0.03294,0.0491 0.115803,0.17767 0.184129,0.28569 0.504818,0.79813 1.163572,1.80176 1.257246,1.91545 0.05077,0.0616 0.09231,0.1262 0.09231,0.14351 0,0.0173 0.06026,0.10701 0.133917,0.19934 0.07365,0.0923 0.206233,0.26738 0.294619,0.38899 0.08839,0.12162 0.208983,0.28682 0.267994,0.36714 0.05901,0.0803 0.2001,0.28263 0.31353,0.44957 0.11343,0.16695 0.235541,0.34372 0.271358,0.39283 0.07507,0.10291 0.318174,0.46198 0.397013,0.5864 0.222154,0.35057 0.631578,1.00066 0.66115,1.04977 0.230747,0.38316 0.410189,0.68991 0.410189,0.7012 0,0.008 0.08226,0.15582 0.182796,0.32922 0.353932,0.61047 1.119472,2.18208 1.279972,2.62772 0.03362,0.0934 0.0718,0.1804 0.08483,0.19342 0.01304,0.013 0.0237,0.058 0.0237,0.0999 0,0.0419 0.01799,0.0942 0.03998,0.11615 0.02199,0.022 0.05331,0.10155 0.06959,0.17678 0.01628,0.0752 0.05429,0.22368 0.08445,0.32989 0.0518,0.18241 0.05098,0.19935 -0.01487,0.3059 -0.169832,0.27479 -0.155393,0.2795 -0.627833,-0.20485 z"
       style="fill:#e89f4a;stroke-width:0.03571129" />
    <path
       inkscape:connector-curvature="0"
       id="path3820"
       d="m 33.446249,141.90161 c -0.181264,-0.48085 -0.252471,-0.69326 -0.368144,-1.09813 -0.06734,-0.23569 -0.181365,-0.62136 -0.253388,-0.85706 -0.07202,-0.2357 -0.14822,-0.49283 -0.169329,-0.57138 -0.02111,-0.0786 -0.06829,-0.23928 -0.104844,-0.35712 -0.03655,-0.11784 -0.10585,-0.36692 -0.153985,-0.55353 -0.140285,-0.54377 -0.191317,-0.72511 -0.23618,-0.83921 -0.02317,-0.0589 -0.111914,-0.30801 -0.197215,-0.55353 -0.19644,-0.56538 -0.480321,-1.36867 -0.78246,-2.2141 -0.592522,-1.65794 -0.961618,-2.71236 -1.462554,-4.17822 -0.164448,-0.4812 -0.318507,-0.92314 -0.342354,-0.98206 -0.148364,-0.36661 -1.622307,-4.73305 -2.20602,-6.53516 -0.718797,-2.21917 -0.831641,-2.62257 -0.869097,-3.10689 -0.01823,-0.23569 -0.06378,-0.64548 -0.101222,-0.91063 -0.107559,-0.76167 -0.112298,-0.87831 -0.05877,-1.44631 0.05525,-0.58634 0.176775,-1.01732 0.429022,-1.52153 0.07038,-0.14068 0.127958,-0.27931 0.127958,-0.30809 0,-0.0591 0.179642,-0.3705 0.427845,-0.74159 0.237918,-0.35571 1.267707,-2.11951 1.626298,-2.78548 0.434189,-0.80637 2.177285,-3.71896 3.034849,-5.071 0.655338,-1.03323 0.872897,-1.41205 1.034977,-1.80219 0.135242,-0.32551 0.672457,-1.21139 1.072745,-1.76895 0.476117,-0.66318 1.326284,-2.16012 1.554182,-2.73655 0.189139,-0.47839 0.962299,-1.509702 1.685392,-2.248139 0.62086,-0.634035 1.029778,-0.961231 1.201289,-0.961231 0.222663,0 0.483356,0.335813 0.693049,0.89277 0.04807,0.127673 0.144188,0.34462 0.213602,0.482103 0.138673,0.274671 0.531914,1.461367 0.615358,1.856987 0.029,0.1375 0.07931,0.55531 0.111799,0.92851 0.05054,0.58046 0.05296,0.7714 0.01678,1.32131 -0.07294,1.10856 -0.147123,1.57678 -0.523389,3.30329 -0.28962,1.32893 -0.302704,1.37845 -0.5236,1.98198 -0.351571,0.96054 -0.607596,1.41623 -1.12359,1.99984 -0.173658,0.1964 -0.475558,0.55798 -0.670887,0.80349 -0.468237,0.58854 -1.704466,1.82615 -2.039963,2.04223 -0.139287,0.0897 -0.423881,0.31043 -0.632433,0.49047 -0.383405,0.33101 -1.31372,1.28424 -1.605954,1.64552 -0.179798,0.22229 -1.028256,1.47835 -1.073055,1.58856 -0.05091,0.12525 -0.124894,0.83604 -0.150606,1.4469 -0.02314,0.54983 0.0062,1.4825 0.09055,2.87477 0.01903,0.31425 0.04374,0.73207 0.05491,0.92849 0.02495,0.43875 0.182161,2.01658 0.232024,2.32871 0.02006,0.12556 0.02898,0.24042 0.01983,0.25523 -0.0091,0.0148 -0.002,0.0903 0.01587,0.16779 0.01788,0.0775 0.04244,0.28535 0.05456,0.46193 0.01212,0.17656 0.02817,0.33095 0.03567,0.34307 0.0075,0.0121 0.05423,0.34172 0.103865,0.73244 0.04963,0.39072 0.114278,0.8711 0.143653,1.06752 0.02938,0.19641 0.07855,0.53389 0.10927,0.74994 0.03072,0.21605 0.07121,0.48925 0.08998,0.60709 0.01876,0.11785 0.06532,0.42318 0.103461,0.67852 0.03814,0.25533 0.08695,0.56066 0.108459,0.67851 0.05782,0.31675 0.10539,0.59095 0.126998,0.73208 0.02064,0.13483 0.100393,0.50567 0.176635,0.82137 0.04857,0.20112 0.133666,0.6146 0.198429,0.9642 0.02001,0.10803 0.05983,0.3089 0.08848,0.44639 0.195547,0.93835 0.500725,3.23548 0.571063,4.29849 0.0073,0.11062 0.02205,0.32969 0.03274,0.48682 0.0798,1.17302 0.07156,2.87991 -0.01655,3.43147 -0.03439,0.21526 -0.05372,0.25379 -0.188533,0.37578 -0.208451,0.18862 -0.254647,0.17977 -0.347478,-0.0665 z"
       style="fill:#e89f4a;stroke-width:0.03571129" />
    <path
       inkscape:connector-curvature="0"
       id="path3866"
       d="m 63.03463,99.427834 c -0.301401,-0.04388 -0.733156,-0.15993 -1.050786,-0.282419 -0.257419,-0.09928 -0.279723,-0.102132 -0.434012,-0.05571 -0.441275,0.132814 -1.819231,-0.180816 -2.997689,-0.682259 -0.647332,-0.275452 -1.758118,-0.845223 -1.889832,-0.969376 -0.120637,-0.11371 -0.123116,-0.120854 -0.05564,-0.160078 0.04285,-0.02492 0.365513,-0.0508 0.820563,-0.06584 0.496509,-0.01639 0.876651,-0.04843 1.124905,-0.09483 0.451477,-0.08437 1.017772,-0.286528 1.017772,-0.363342 0,-0.03626 -0.164615,-0.111058 -0.517814,-0.235255 -0.518102,-0.182186 -1.768633,-0.730335 -2.071245,-0.907897 -0.161876,-0.09497 -0.216598,-0.190522 -0.14825,-0.258881 0.02125,-0.02125 0.275587,-0.04227 0.597368,-0.04936 0.86475,-0.01906 1.37734,-0.10007 1.729262,-0.273316 l 0.1607,-0.07911 0.0256,-0.282492 c 0.143275,-1.580949 1.068465,-3.143178 2.441614,-4.122777 0.597479,-0.42625 1.491961,-0.800152 2.282388,-0.954087 0.436915,-0.08508 1.298984,-0.07624 1.758197,0.01803 0.862153,0.176986 1.599317,0.566604 2.179076,1.151695 0.588376,0.59378 0.940193,1.235268 1.152013,2.100524 0.09536,0.389515 0.130107,1.148189 0.0736,1.607005 -0.171838,1.395347 -0.888642,2.701242 -1.995651,3.635725 -0.414561,0.349952 -0.712014,0.54429 -1.213407,0.792773 -0.933,0.46238 -2.071774,0.664804 -2.988739,0.531269 z m 13.194602,-5.367413 c -0.304022,-0.06394 -0.743082,-0.212426 -0.975174,-0.329818 -1.404066,-0.710112 -2.253322,-2.370246 -2.099939,-4.104999 0.211069,-2.387184 2.002093,-4.292163 4.164307,-4.429263 1.292326,-0.08194 2.508895,0.536852 3.233229,1.644536 0.116609,0.178327 0.232305,0.353208 0.257104,0.388631 0.04231,0.06045 0.05487,0.06094 0.204075,0.008 0.252025,-0.08946 0.577509,-0.284834 0.896054,-0.537853 0.370835,-0.294556 0.421386,-0.322718 0.44921,-0.250206 0.0314,0.08182 -0.05777,0.278059 -0.418729,0.921521 -0.4151,0.739968 -0.521171,0.911962 -0.644392,1.044834 -0.08426,0.09085 -0.09543,0.124698 -0.07072,0.214267 0.03863,0.140016 0.141901,0.132961 0.49265,-0.0336 0.345633,-0.164142 0.569248,-0.315559 0.950472,-0.643609 0.312834,-0.269207 0.418418,-0.322468 0.418418,-0.2111 0,0.117496 -0.595598,1.37066 -0.84614,1.780325 -0.549441,0.898381 -0.992009,1.506538 -1.291268,1.774389 -0.105884,0.09478 -0.231405,0.263904 -0.326329,0.439712 -0.592378,1.097079 -1.65088,1.946707 -2.80368,2.250439 -0.441699,0.116376 -1.215785,0.15233 -1.589152,0.07382 z"
       style="fill:#020202;stroke-width:0.03571129" />
    <path
       inkscape:connector-curvature="0"
       id="path3848"
       d="m 110.32931,200.87412 c -0.20229,-0.0723 -0.37629,-0.19267 -0.4949,-0.34244 -0.13675,-0.17266 -0.19631,-0.31468 -0.27182,-0.64804 -0.10206,-0.45066 -0.68583,-1.82606 -1.05493,-2.48542 -0.53088,-0.94838 -1.31925,-1.99444 -2.15596,-2.86067 -0.49357,-0.511 -0.88699,-0.84727 -1.43044,-1.22266 -0.23459,-0.16206 -0.58724,-0.41866 -0.78366,-0.57024 -0.43753,-0.33764 -1.21416,-0.8488 -1.60348,-1.0554 -0.37517,-0.19906 -2.08619,-0.86335 -2.8459,-1.10487 -0.325914,-0.10362 -0.759794,-0.21525 -0.964206,-0.2481 -0.204398,-0.0328 -0.510531,-0.0827 -0.6803,-0.11083 -0.18416,-0.0305 -0.558695,-0.0512 -0.928488,-0.0512 -1.147807,0 -2.119672,-0.12694 -2.445086,-0.31894 -0.204162,-0.12045 -0.654037,-0.50431 -0.826502,-0.70522 -0.09319,-0.10855 -0.240234,-0.2794 -0.326769,-0.37967 -0.313114,-0.36279 -0.458448,-0.59482 -0.69416,-1.10819 -0.355034,-0.77324 -0.483414,-1.41333 -0.439094,-2.18925 0.06687,-1.17105 0.382578,-1.84571 1.258394,-2.68928 0.34873,-0.33589 1.104488,-0.88214 1.499968,-1.08414 0.42653,-0.21787 1.522357,-0.57725 2.150383,-0.70522 0.310861,-0.0633 0.46431,-0.0731 0.982058,-0.0623 0.602309,0.0125 0.619586,0.0151 0.936781,0.13809 0.477198,0.18503 1.338431,0.74693 2.619351,1.709 1.43924,1.081 1.62431,1.22375 1.93926,1.49591 0.14336,0.12387 0.41307,0.35689 0.59935,0.5178 0.48224,0.41659 1.94895,1.86962 2.31398,2.29242 0.16957,0.19642 0.39738,0.45519 0.50626,0.57506 0.18566,0.20446 0.34589,0.38657 1.13186,1.28664 1.33143,1.5247 3.05322,4.20616 4.1933,6.53045 1.10285,2.24843 1.56949,3.36506 1.51891,3.63465 -0.0418,0.22305 -0.21614,0.44204 -0.49379,0.6204 -0.47516,0.30522 -1.93392,0.96833 -2.50013,1.13648 -0.22141,0.0658 -0.53428,0.068 -0.71024,0.005 z"
       style="fill:#473636;stroke-width:0.0357113" />
    <path
       inkscape:connector-curvature="0"
       id="path3850"
       d="m 108.03784,201.12481 c -0.30356,-0.0824 -0.39422,-0.12207 -1.0076,-0.44079 -0.15713,-0.0816 -0.53478,-0.26327 -0.83922,-0.40361 -1.19153,-0.54926 -1.47207,-0.70411 -2.30339,-1.27137 -0.45174,-0.30825 -0.94187,-0.63332 -1.08918,-0.72239 -0.14731,-0.0891 -0.47676,-0.31668 -0.73209,-0.50582 -0.25533,-0.18912 -0.5687,-0.41803 -0.69637,-0.50866 -0.12767,-0.0906 -0.36069,-0.28044 -0.51781,-0.42182 -0.15713,-0.14137 -0.51067,-0.45962 -0.78565,-0.70724 -0.274984,-0.24761 -0.676724,-0.62058 -0.892788,-0.82884 -0.216049,-0.20827 -0.513344,-0.48057 -0.660651,-0.60512 -0.147307,-0.12455 -0.476742,-0.42335 -0.732088,-0.664 -0.255332,-0.24064 -0.626038,-0.56491 -0.823778,-0.72061 -0.19774,-0.1557 -0.478966,-0.40668 -0.624947,-0.55771 -0.145982,-0.15103 -0.390959,-0.40267 -0.544423,-0.55917 -0.358039,-0.36515 -0.435544,-0.52819 -0.431832,-0.90842 0.006,-0.62455 0.352736,-1.12823 0.885331,-1.2864 0.269545,-0.08 0.903699,-0.0662 1.682493,0.0369 1.563275,0.20679 1.798899,0.24328 2.193463,0.33962 0.67278,0.16429 1.05954,0.30186 2.20179,0.78317 2.0177,0.85022 2.92435,1.45384 4.42779,2.94791 0.63171,0.62776 0.86567,0.9102 1.27398,1.53791 0.57749,0.8878 0.78376,1.26763 1.14938,2.1165 0.31468,0.73058 0.46983,1.20896 0.54006,1.66518 0.0809,0.52529 0.0592,0.84098 -0.0744,1.08652 -0.12331,0.22656 -0.24798,0.34038 -0.57012,0.52053 -0.32274,0.18049 -0.57832,0.19982 -1.02797,0.0777 z"
       style="fill:#906e6e;stroke-width:0.03571129" />
    <path
       sodipodi:nodetypes="ccccccsccczzcczccccccccccc"
       inkscape:connector-curvature="0"
       id="path3794"
       d="M 80.836114,205.95573 C 68.446264,205.62559 56.022993,203.06558 44.641832,198.13579 34.78858,193.13075 27.019356,184.71936 20.271237,176.13993 13.366046,166.14188 10.056279,153.95379 8.9007988,142.00047 c 5.0630332,-5.32439 12.1504992,6.1825 18.7315152,5.76278 11.251323,3.59874 24.55085,-5.04274 24.133114,-17.10716 0.374108,-5.57426 8.256499,-3.68458 12.323699,-6.00276 11.569716,-6.59435 22.800695,-15.33202 33.364165,-23.3606 11.598918,-9.208357 22.113688,-20.033886 35.646408,-26.491868 9.2533,-5.639949 21.56502,-8.288784 31.45992,-2.80308 9.91816,7.910124 13.9936,17.766927 18.33795,32.108398 4.34435,14.34147 2.82224,38.83949 -0.0682,52.39356 -2.89044,13.55407 -7.40638,18.3624 -15.98308,23.19454 -11.13798,6.52023 -22.93615,12.91289 -36.1036,13.69561 -10.31917,0.97967 -23.99701,-1.41372 -29.73044,-8.60783 -5.733434,-7.19411 -9.954385,-4.45668 -6.450546,1.82818 2.791562,7.66799 11.175206,13.28848 19.303846,12.291 -5.94294,5.1225 -14.524218,5.67601 -22.066037,6.62989 -3.630823,0.47927 -7.310897,0.3707 -10.963369,0.4246 z M 101.4589,164.9101 c 7.96064,-0.8122 8.16323,-13.45142 0.30663,-14.58769 -8.491929,-2.24265 -12.549988,11.2713 -4.297097,14.12996 1.258321,0.5345 2.645977,0.63089 3.990467,0.45773 z m -8.373804,-12.08964 c -0.04317,-0.13056 -0.0881,0.12719 0,0 z"
       style="fill:#72aafd;stroke-width:0.03571129" />
    <path
       sodipodi:nodetypes="ccsssccccscccc"
       inkscape:connector-curvature="0"
       id="path3828"
       d="m 81.594822,206.31344 c -3.491826,-0.3066 -7.00197,-0.30198 -10.481264,-0.79389 -4.219046,-0.29501 -8.570122,-1.71142 -12.685695,-2.62136 -0.500968,-0.11077 -1.248729,-0.30313 -1.593711,-0.50833 -0.344981,-0.20517 -0.28718,-0.42318 0.822974,-0.5852 9.510904,-1.38813 18.897552,-5.24263 26.619513,-11.31553 3.72467,-2.66044 7.00539,-5.94164 10.155403,-9.31727 -0.275054,3.43956 1.296513,6.64672 3.095898,9.38898 0.250147,0.63587 1.718064,2.19755 2.53099,3.03947 3.55166,3.19681 8.13845,5.76674 12.79982,5.39171 1.13736,-0.0915 1.77187,-0.31802 0.69596,0.88349 -2.57995,1.86656 -5.51522,2.84003 -8.4981,3.75322 -4.15357,0.91278 -8.311501,1.9632 -12.56581,2.1743 -3.609035,0.56526 -7.263146,0.38208 -10.895978,0.51041 z"
       style="fill:#d2e3fd;stroke-width:0.03678891" />
    <path
       inkscape:connector-curvature="0"
       id="path3826"
       d="m 99.84329,166.56917 c -0.108025,-0.0158 -0.340084,-0.0302 -0.515671,-0.0322 -0.175588,-0.002 -0.408605,-0.0192 -0.517807,-0.0384 -0.109218,-0.0191 -0.367304,-0.0506 -0.573528,-0.07 -0.577828,-0.0541 -1.134771,-0.21227 -1.905332,-0.54104 -1.203085,-0.51331 -1.530693,-0.70397 -2.274697,-1.3238 -0.715798,-0.59635 -1.413714,-1.35722 -1.731071,-1.8872 -0.07644,-0.12768 -0.214178,-0.32991 -0.306059,-0.44941 -0.430757,-0.56021 -1.010043,-1.69065 -1.187973,-2.31822 -0.197843,-0.69783 -0.308504,-1.90124 -0.239718,-2.60693 0.02105,-0.21605 0.0383,-0.57156 0.03831,-0.78999 3e-5,-0.3108 0.01996,-0.4739 0.09165,-0.74994 0.05037,-0.19403 0.130074,-0.53757 0.17709,-0.76345 0.04701,-0.22587 0.141312,-0.57137 0.209553,-0.76779 0.572614,-1.64817 0.854797,-2.42296 1.083292,-2.97437 0.126834,-0.30604 0.639264,-1.22547 0.833455,-1.49538 0.166323,-0.23121 0.91121,-1.15511 1.103751,-1.36904 0.511518,-0.56832 1.396584,-1.41074 1.876433,-1.786 0.374978,-0.29324 0.441907,-0.33659 0.843898,-0.54666 0.631163,-0.32985 2.00066,-0.77423 2.385977,-0.77423 0.04219,0 0.171139,-0.0641 0.286572,-0.14252 0.299461,-0.20336 0.855295,-0.473 1.250365,-0.60655 0.26346,-0.0891 0.44697,-0.12362 0.82136,-0.15466 0.99527,-0.0825 2.32332,-0.0289 2.92832,0.11821 0.16696,0.0406 0.46502,0.10429 0.66238,0.14157 0.99064,0.18714 2.04392,0.51619 2.70547,0.84521 0.38377,0.19088 0.76471,0.44484 1.10661,0.73775 0.14151,0.12122 0.31354,0.26861 0.38228,0.32753 0.29382,0.2518 0.97913,0.98375 1.22152,1.30467 0.11491,0.15213 0.30474,0.43951 0.55435,0.83922 0.0613,0.0982 0.18904,0.32495 0.28379,0.5039 0.0948,0.17895 0.26274,0.46017 0.37329,0.62495 0.24626,0.3671 0.39234,0.65594 0.64819,1.28166 0.30827,0.75391 0.38178,1.0591 0.43011,1.78557 0.0793,1.19204 0.0216,2.87269 -0.1147,3.33901 -0.0402,0.13748 -0.12981,0.45618 -0.19918,0.70819 -0.12793,0.46477 -0.24429,0.78288 -0.43981,1.20235 -0.0595,0.12768 -0.19787,0.42758 -0.30747,0.66646 -0.64406,1.40372 -1.46565,2.63229 -2.23932,3.34857 -0.11848,0.10969 -0.37104,0.32272 -0.56127,0.47342 -0.19023,0.15068 -0.45032,0.37447 -0.57799,0.49733 -0.48668,0.46833 -0.6329,0.60097 -0.88876,0.80621 -0.14512,0.11637 -0.35402,0.26889 -0.46425,0.3389 -0.11024,0.07 -0.30489,0.21115 -0.43256,0.31366 -0.43942,0.35281 -1.12596,0.79419 -1.62486,1.04461 -0.57697,0.28963 -1.32818,0.62595 -1.53558,0.68752 -0.51882,0.154 -0.69456,0.18832 -1.12492,0.2197 -0.64341,0.0469 -2.28942,0.0674 -2.535486,0.0315 z"
       style="fill:#fefefe;stroke-width:0.03571129" />
    <path
       inkscape:connector-curvature="0"
       id="path3824"
       d="m 98.727343,167.4025 c -0.74318,-0.0927 -1.817885,-0.34461 -2.410516,-0.56502 -1.224355,-0.45535 -2.734751,-1.55093 -3.520807,-2.55383 -0.115448,-0.14731 -0.310596,-0.39072 -0.433659,-0.54093 -0.426824,-0.52097 -1.127907,-1.86182 -1.440771,-2.75549 -0.249101,-0.71154 -0.510663,-1.99017 -0.583396,-2.85191 -0.08649,-1.02467 0.125125,-2.65006 0.536247,-4.11867 0.450141,-1.60803 0.645967,-2.14793 1.275878,-3.51756 0.502061,-1.09165 1.0233,-1.93817 1.758908,-2.85652 0.315663,-0.3941 1.131413,-1.19849 1.6846,-1.66115 0.757938,-0.6339 2.26418,-1.52764 2.902885,-1.72242 0.136658,-0.0417 0.457402,-0.14021 0.712734,-0.21895 1.106874,-0.34137 1.948714,-0.4848 3.071164,-0.52331 1.11719,-0.0383 2.32055,0.10444 3.11007,0.36894 0.54927,0.18403 1.51468,0.57472 1.96991,0.79722 0.79935,0.39068 1.88029,1.17404 2.61625,1.89601 1.48678,1.45851 2.23014,2.60683 3.0347,4.68797 0.1843,0.47676 0.31816,0.99668 0.44587,1.732 0.11886,0.68433 0.15481,1.78735 0.0943,2.89262 -0.0558,1.01838 -0.1817,1.5638 -0.65555,2.83905 -0.3952,1.06358 -0.68994,1.60831 -1.44239,2.6658 -0.56829,0.79868 -0.9218,1.21964 -1.46498,1.74455 -0.89701,0.8668 -1.84352,1.57787 -2.74398,2.06139 -0.31443,0.16884 -0.76454,0.42255 -1.00024,0.56379 -0.96649,0.57915 -2.23681,1.09254 -3.35685,1.35662 -1.08187,0.25508 -1.28825,0.27673 -2.73191,0.28653 -0.716902,0.005 -1.359716,0.002 -1.428457,-0.007 z m 2.071257,-1.6707 c 0.62508,-0.0839 1.6604,-0.30152 2.15636,-0.45326 0.47876,-0.14647 1.07773,-0.38885 1.39691,-0.56528 1.67339,-0.92497 2.56709,-1.54404 3.46079,-2.3973 1.15822,-1.10583 2.54869,-3.17903 3.07532,-4.58532 0.3243,-0.86605 0.57794,-1.92556 0.6576,-2.74705 0.0478,-0.49312 0.0485,-1.68802 0.001,-2.10969 -0.12358,-1.10153 -0.44196,-2.33674 -0.77049,-2.98908 -0.18417,-0.36573 -0.70952,-1.25437 -0.94853,-1.60447 -0.32699,-0.47898 -0.8497,-1.00323 -1.51414,-1.5186 -1.12374,-0.87164 -1.88655,-1.30577 -3.05722,-1.73994 -0.98185,-0.36415 -2.65026,-0.68895 -3.15222,-0.61368 -0.19694,0.0296 -0.39302,0.18694 -0.3553,0.28523 0.0124,0.0321 0.13183,0.0896 0.27672,0.13312 0.57538,0.17284 0.79716,0.31586 1.14041,0.73542 0.4111,0.50248 0.54549,0.97916 0.51498,1.82652 -0.02,0.55616 -0.0701,0.78772 -0.30949,1.43224 -0.23704,0.63815 -0.73195,1.54847 -1.14548,2.10698 -0.2292,0.30955 -1.28458,1.34575 -1.73141,1.69996 -0.4473,0.35456 -1.121748,0.77222 -1.477857,0.91516 -0.578595,0.23223 -1.592601,0.56541 -1.930283,0.63422 -0.32017,0.0653 -0.411123,0.0689 -0.954589,0.0386 -0.657985,-0.0367 -0.812288,-0.0744 -1.270412,-0.31095 -0.330834,-0.1708 -0.850747,-0.68124 -1.013535,-0.99507 -0.153317,-0.29558 -0.326341,-0.81676 -0.368909,-1.11126 -0.110086,-0.76153 0.02358,-1.65576 0.342691,-2.29255 0.154024,-0.30737 0.162272,-0.33708 0.10854,-0.39082 -0.05375,-0.0537 -0.06532,-0.0515 -0.152374,0.0291 -0.232502,0.21539 -0.746391,1.10069 -1.025363,1.76644 -0.293171,0.69964 -0.749056,2.05535 -0.933967,2.77746 -0.06641,0.25934 -0.180256,0.82508 -0.252975,1.25719 l -0.132209,0.78564 -0.0037,1.23204 c -0.0038,1.32325 0.02147,1.63719 0.209715,2.59546 0.142241,0.72413 0.311259,1.21073 0.661388,1.90415 0.369012,0.73086 0.637939,1.15101 1.006096,1.57191 0.2391,0.27336 0.77224,0.76432 1.206473,1.11103 0.685529,0.54735 2.061566,1.21703 2.854382,1.38914 0.28236,0.0613 1.185175,0.19449 1.520251,0.22429 0.397439,0.0354 1.569447,0.0188 1.910557,-0.027 z"
       style="fill:#040404;stroke-width:0.03571129" />
    <path
       inkscape:connector-curvature="0"
       id="path3852"
       d="m 94.592326,184.33584 c -0.698918,-0.19657 -1.219244,-0.73994 -1.82983,-1.91093 -0.441981,-0.84766 -0.478583,-0.95848 -0.477581,-1.44622 0,-0.36027 0.01208,-0.42634 0.137733,-0.797 0.220585,-0.65108 0.47901,-0.97887 0.9436,-1.19679 0.201511,-0.0945 0.287603,-0.11303 0.581393,-0.12502 0.28535,-0.0116 0.385479,0 0.580347,0.0643 0.346226,0.11521 0.617966,0.33167 0.837064,0.66678 0.321584,0.49185 0.365889,0.5485 0.429078,0.5485 0.03405,0 0.221822,-0.10673 0.417294,-0.23718 0.4445,-0.29664 0.65012,-0.39211 0.945235,-0.43888 0.822217,-0.13031 1.573968,0.40746 1.893578,1.35456 0.108908,0.32271 0.109527,0.78884 0.0015,1.103 -0.08723,0.25364 -0.25701,0.53624 -0.480144,0.79917 -0.1537,0.18113 -1.182744,0.97883 -1.416586,1.09814 -0.225475,0.11502 -0.847138,0.35416 -1.172551,0.45107 -0.391666,0.11661 -1.092646,0.15013 -1.390118,0.0665 z"
       style="fill:#8e95a0;stroke-width:0.03571129" />
    <path
       inkscape:connector-curvature="0"
       id="path3854"
       d="m 91.398626,182.03174 c -0.357449,-0.0411 -1.008217,-0.19652 -1.354016,-0.32332 -1.402662,-0.51436 -2.601432,-1.60091 -3.243648,-2.94001 -0.208341,-0.43442 -0.364922,-0.89433 -0.472441,-1.38768 -0.06904,-0.31679 -0.07977,-0.47165 -0.07977,-1.15165 0,-0.86653 0.0442,-1.17005 0.26914,-1.84802 0.460512,-1.38803 1.485718,-2.6056 2.78167,-3.3036 2.427435,-1.30741 5.520593,-0.6871 7.257952,1.4555 0.804306,0.99191 1.249571,2.17209 1.301271,3.44909 0.04317,1.06609 -0.159238,1.98229 -0.649737,2.94124 -0.107715,0.21059 -0.19584,0.40162 -0.19584,0.42456 0,0.0229 0.03298,0.0417 0.07329,0.0417 0.103915,0 0.541374,0.1028 0.604282,0.14199 0.04444,0.0277 0.03978,0.0465 -0.02989,0.12065 -0.109733,0.11679 -0.438137,0.28829 -0.692791,0.36181 -0.168812,0.0487 -0.229761,0.0892 -0.339259,0.22522 -0.253107,0.31447 -0.631075,0.68926 -0.82475,0.81782 -0.106816,0.0709 -0.307605,0.16835 -0.446222,0.21654 -0.218509,0.076 -0.299682,0.0858 -0.610734,0.0737 -0.317577,-0.0124 -0.389132,-0.028 -0.623843,-0.13692 -0.217006,-0.10067 -0.268691,-0.11341 -0.284805,-0.0702 -0.0109,0.029 -0.0683,0.19742 -0.127702,0.37418 -0.102884,0.30612 -0.114299,0.32346 -0.240087,0.36452 -0.431449,0.14084 -1.494798,0.21929 -2.072082,0.15288 z m 1.063732,-1.68059 c 1.609303,-0.22383 3.021471,-1.41552 3.532473,-2.98091 0.165542,-0.50714 0.206916,-0.83415 0.187311,-1.48042 -0.01429,-0.47381 -0.03538,-0.65569 -0.107228,-0.92849 -0.206593,-0.78422 -0.604857,-1.46571 -1.192171,-2.03994 -0.56553,-0.55295 -1.201245,-0.91663 -1.971968,-1.12813 -0.317651,-0.0872 -0.397616,-0.0943 -1.057855,-0.095 -0.657911,0 -0.740969,0.007 -1.05348,0.0916 -1.238745,0.33698 -2.235556,1.1234 -2.801184,2.20995 -0.65311,1.25461 -0.686347,2.63151 -0.09358,3.87659 0.650699,1.36677 1.86068,2.25413 3.394717,2.48958 0.196783,0.0302 0.903934,0.0212 1.162963,-0.0149 z"
       style="fill:#8f96a1;stroke-width:0.03571129" />
    <path
       inkscape:connector-curvature="0"
       id="path3856"
       d="m 88.664812,173.56632 c -0.06431,-0.0425 -0.158387,-0.14801 -0.209049,-0.23446 -0.224835,-0.38365 -0.354877,-0.77488 -3.173777,-9.54818 -0.268208,-0.83475 -0.935171,-2.90779 -1.482137,-4.60675 -0.546967,-1.69896 -1.374751,-4.27019 -1.839521,-5.71382 -0.464771,-1.44362 -1.125974,-3.50059 -1.469344,-4.57103 -0.343369,-1.07045 -0.88731,-2.75781 -1.208758,-3.7497 -0.621154,-1.91667 -1.491214,-4.61511 -2.838299,-8.80282 -0.454904,-1.41417 -1.121952,-3.48721 -1.482331,-4.60676 -0.360379,-1.11954 -0.760112,-2.36498 -0.888294,-2.76763 -0.279353,-0.87749 -1.772116,-5.52244 -3.368409,-10.48126 -0.638592,-1.98377 -1.310626,-4.07288 -1.493411,-4.64247 -0.182784,-0.5696 -0.705756,-2.19267 -1.162163,-3.60684 -0.456405,-1.41417 -0.84564,-2.63686 -0.864966,-2.71711 -0.02898,-0.12033 -0.02396,-0.16296 0.02866,-0.24327 0.08078,-0.12329 0.102155,-0.13384 1.84911,-0.91318 1.32563,-0.59138 1.46386,-0.64561 1.531252,-0.60086 0.07787,0.0517 0.07966,0.0571 1.868544,5.58147 1.380461,4.26313 2.04159,6.30279 2.517642,7.76721 0.252206,0.77583 0.918653,2.8328 1.480993,4.57104 0.56234,1.73825 1.141094,3.52203 1.286118,3.96395 0.145024,0.44194 0.426717,1.30971 0.625983,1.92842 0.199265,0.6187 0.649049,2.00876 0.999518,3.08903 0.35047,1.08026 1.022704,3.1533 1.493854,4.60675 2.204744,6.8014 2.590051,7.98925 3.382463,10.42769 0.956568,2.9436 2.126583,6.55384 2.632942,8.12432 0.760211,2.35782 2.79178,8.62365 3.479371,10.73125 0.757938,2.32318 1.28333,3.95567 1.333189,4.14251 0.01573,0.0589 0.09552,0.29194 0.177296,0.51781 0.213736,0.59027 0.206843,0.82577 -0.03165,1.08345 -0.165704,0.17904 -0.253226,0.20422 -0.673525,0.19383 -0.356831,-0.009 -0.399973,-0.002 -0.598803,0.0905 -0.314278,0.14661 -0.468405,0.26406 -0.614313,0.46808 -0.303467,0.42432 -0.517122,0.55933 -0.921268,0.58208 -0.211205,0.0119 -0.268115,0.002 -0.366914,-0.0632 z m -5.535049,-64.3573 c -0.81965,-0.78996 -2.100516,-2.02333 -2.846367,-2.74085 -2.95212,-2.83997 -3.429588,-3.3013 -3.439017,-3.32289 -0.01903,-0.0436 0.128884,-0.14012 1.31326,-0.85713 0.657979,-0.39834 1.417269,-0.8583 1.687309,-1.02213 l 0.490984,-0.2979 0.205388,0.18519 c 0.112963,0.10185 0.614261,0.56373 1.113998,1.02641 1.011244,0.93622 2.450431,2.26669 3.814208,3.52608 0.49594,0.45797 1.313621,1.21327 1.817067,1.67844 l 0.915355,0.84575 -0.135052,0.10953 c -0.361294,0.29298 -3.331131,2.30576 -3.402138,2.30576 -0.0246,0 -0.715346,-0.64632 -1.534995,-1.43626 z"
       style="fill:#56493a;stroke-width:0.03571129" />
    <path
       inkscape:connector-curvature="0"
       id="path3858"
       d="m 89.327826,173.28443 c -0.204653,-0.064 -0.302242,-0.17482 -0.485697,-0.55128 -0.100165,-0.20557 -0.207821,-0.4753 -0.239237,-0.59944 -0.03142,-0.12412 -0.21007,-0.69976 -0.397008,-1.27918 -0.433525,-1.34372 -0.398263,-1.22593 -0.673526,-2.2498 -0.444833,-1.65463 -0.454451,-1.69233 -0.715033,-2.80335 -0.248863,-1.06103 -0.611833,-2.89627 -0.748668,-3.78539 -0.05139,-0.33389 -0.13232,-0.84011 -0.179851,-1.1249 -0.04753,-0.2848 -0.111945,-0.7187 -0.143142,-0.9642 -0.0312,-0.24553 -0.08704,-0.59907 -0.124097,-0.78566 -0.209004,-1.05233 -0.260499,-1.41713 -0.483953,-3.42828 -0.0491,-0.44192 -0.12105,-1.06062 -0.159886,-1.37489 -0.12159,-0.98391 -0.171388,-1.50752 -0.229251,-2.41051 -0.03083,-0.48121 -0.07204,-1.05264 -0.09158,-1.26984 -0.04605,-0.51209 -0.04626,-5.43682 -2.95e-4,-6.09785 0.01939,-0.27865 0.04243,-1.67173 0.0512,-3.09571 0.01549,-2.51558 0.02921,-2.9645 0.145766,-4.76746 0.07496,-1.15967 0.0815,-1.24663 0.374475,-4.98173 0.03557,-0.45351 0.07735,-1.08089 0.142697,-2.14268 0.139413,-2.26536 0.548031,-5.92612 0.966639,-8.65999 0.305109,-1.99262 1.607876,-9.35758 1.771879,-10.01701 0.05459,-0.21951 0.776828,-2.36799 0.935293,-2.78228 0.098,-0.2562 0.266358,-0.50449 0.563761,-0.83144 0.13461,-0.14797 0.405437,-0.44957 0.601837,-0.67023 0.702232,-0.78886 1.81435,-1.76002 3.1069,-2.71308 1.001869,-0.73872 1.093353,-0.80741 2.141634,-1.60849 0.461615,-0.35275 0.78012,-0.57228 0.830288,-0.57228 0.04476,0 0.113518,0.0321 0.152801,0.0714 0.130162,0.13017 0.118438,0.19661 -0.180831,1.0245 -0.136231,0.37689 -0.247702,0.71133 -0.247702,0.74322 0,0.0319 -0.264567,0.84842 -0.587933,1.81454 -0.754079,2.25297 -1.234959,3.73363 -1.41716,4.3635 -0.131061,0.45307 -0.56142,2.19588 -0.740749,2.99974 -0.03943,0.17678 -0.11941,0.53032 -0.177723,0.78566 -0.199832,0.87493 -0.538487,2.57148 -0.734651,3.68046 -0.107921,0.6101 -0.276218,1.52608 -0.373991,2.03555 -0.168782,0.87956 -0.278692,1.47226 -0.483001,2.60472 -0.09324,0.51679 -0.378483,2.24795 -0.535453,3.24972 -0.151873,0.96912 -0.402786,2.73192 -0.554085,3.89254 -0.07936,0.60888 -0.167795,1.28382 -0.196517,1.49987 -0.05353,0.4027 -0.210879,1.64826 -0.340614,2.6962 -0.22767,1.83898 -0.440563,4.20747 -0.587432,6.53517 -0.08241,1.30598 -0.0926,1.54316 -0.128145,2.98189 -0.01933,0.78218 -0.06324,1.65645 -0.107634,2.14268 -0.06412,0.70239 -0.07714,1.15241 -0.08987,3.10688 -0.0082,1.25704 8.84e-4,2.71942 0.02004,3.24973 0.0192,0.53031 0.0593,1.67933 0.0891,2.55336 0.0298,0.87404 0.07097,1.76592 0.09148,1.98197 0.02051,0.21606 0.06013,0.65799 0.08804,0.98206 0.02791,0.32409 0.09092,0.97493 0.14003,1.44631 0.04911,0.47139 0.122431,1.25079 0.162936,1.732 0.163171,1.93831 0.339952,3.25413 0.551729,4.10679 0.04634,0.18659 0.09497,0.41158 0.108054,0.49997 0.04158,0.28074 0.520443,2.17881 0.664657,2.63445 0.07627,0.241 0.236213,0.80345 0.355432,1.24989 0.119204,0.44643 0.286381,1.02061 0.371501,1.27594 0.08511,0.25533 0.220173,0.72941 0.300123,1.05348 0.07995,0.32409 0.186104,0.68936 0.235904,0.81173 0.157809,0.38782 0.09637,0.70989 -0.17027,0.89258 -0.121193,0.083 -0.459921,0.17153 -0.539533,0.14098 -0.02613,-0.01 -0.204236,0.004 -0.39579,0.0304 -0.404804,0.0565 -0.618746,0.14954 -0.943379,0.41007 -0.345607,0.27737 -0.547648,0.35361 -0.760554,0.28697 z"
       style="fill:#56493a;stroke-width:0.03571129" />
    <path
       inkscape:connector-curvature="0"
       id="path3860"
       d="m 89.370747,173.39362 c -0.387925,-0.12342 -0.555367,-0.3796 -0.77255,-1.18207 -0.05049,-0.18659 -0.163273,-0.58709 -0.250618,-0.89001 -0.08734,-0.30292 -0.18145,-0.67254 -0.209126,-0.82136 -0.02768,-0.14883 -0.116022,-0.51165 -0.196326,-0.80627 -0.0803,-0.29461 -0.178548,-0.68834 -0.218332,-0.87493 -0.0666,-0.31242 -0.187798,-0.83247 -0.620061,-2.66049 -0.08824,-0.37318 -0.184259,-0.79396 -0.213367,-0.93508 -0.02911,-0.14112 -0.132827,-0.59109 -0.230488,-0.99993 -0.196375,-0.82208 -0.371084,-1.66978 -0.539606,-2.61818 -0.06108,-0.34372 -0.175213,-0.9142 -0.253638,-1.26775 -0.07842,-0.35354 -0.252988,-1.18918 -0.38792,-1.85699 -0.408333,-2.02091 -0.926051,-4.19688 -1.452917,-6.10663 -0.108373,-0.39281 -0.768167,-2.98814 -1.466205,-5.76737 -2.584665,-10.29078 -2.985337,-11.91314 -3.185848,-12.89976 -0.07873,-0.3874 -0.182836,-0.87753 -0.231344,-1.0892 -0.04851,-0.21166 -0.186658,-0.86633 -0.306997,-1.45484 -0.120341,-0.58849 -0.320853,-1.47235 -0.445586,-1.96412 -0.124732,-0.49176 -0.363159,-1.43246 -0.529838,-2.09044 -0.166681,-0.65799 -0.514976,-2.1043 -0.773991,-3.21402 -0.259017,-1.10973 -0.742555,-3.10616 -1.07453,-4.43652 -0.331976,-1.33036 -0.602804,-2.43919 -0.601841,-2.46409 0.001,-0.0249 0.139669,-0.1325 0.308235,-0.23916 0.168566,-0.10665 0.710144,-0.46999 1.203505,-0.80739 0.493362,-0.33742 1.089863,-0.72205 1.325558,-0.85471 0.235693,-0.13268 0.626383,-0.36174 0.868197,-0.50902 l 0.439663,-0.26776 0.156113,0.0596 c 0.128686,0.0491 0.160036,0.0796 0.178451,0.17363 0.01228,0.0627 0.06129,0.2908 0.10889,0.50685 0.361497,1.64072 0.671565,3.17488 0.891373,4.41035 0.364904,2.05102 0.572336,3.07372 1.057525,5.21385 0.175888,0.77582 0.505199,2.32659 0.731801,3.44614 0.447729,2.21204 0.800304,3.85186 1.086465,5.05314 0.100593,0.42228 0.252944,1.07313 0.338558,1.44631 0.08561,0.37318 0.270296,1.17669 0.41041,1.78557 0.140112,0.60887 0.292836,1.27578 0.339387,1.48201 0.04655,0.20624 0.140994,0.62459 0.209873,0.92968 0.06888,0.30507 0.277787,1.17286 0.464242,1.9284 0.186455,0.75555 0.419804,1.71118 0.518554,2.12365 0.09875,0.41246 0.299329,1.24811 0.445732,1.85699 0.146401,0.60887 0.325437,1.38025 0.397855,1.71414 0.07242,0.3339 0.217171,0.98474 0.321669,1.44631 0.586445,2.59019 1.041299,4.6933 1.394094,6.44589 0.126525,0.62851 0.301906,1.48023 0.389736,1.8927 0.315133,1.47996 0.907587,4.37666 1.000647,4.89244 0.03189,0.17678 0.200568,0.90797 0.374815,1.62487 0.174262,0.7169 0.422921,1.78557 0.552583,2.3748 0.274303,1.24662 0.697179,2.86584 1.23574,4.73174 0.122812,0.42551 0.24262,0.90882 0.265554,1.07135 0.01252,0.0884 0.05549,0.28087 0.09558,0.42776 0.12972,0.47527 0.03632,0.80831 -0.301965,1.0768 -0.229982,0.18252 -0.373592,0.24529 -0.561258,0.24529 -0.300432,0 -0.98929,0.25876 -1.35054,0.5073 -0.09039,0.0622 -0.221395,0.13242 -0.291109,0.15607 -0.172715,0.0586 -0.535496,0.0892 -0.644802,0.0544 z"
       style="fill:#56493a;stroke-width:0.03571129" />
    <ellipse
       ry="2.4016745"
       rx="1.95626"
       cy="95.767937"
       cx="65.239952"
       id="path3876"
       style="opacity:1;vector-effect:none;fill:#ffffff;fill-opacity:1;fill-rule:evenodd;stroke-width:0.14729252;stroke-linecap:butt;stroke-linejoin:miter;stroke-miterlimit:4;stroke-dasharray:none;stroke-dashoffset:0;stroke-opacity:1" />
    <ellipse
       transform="rotate(-5.3941543)"
       ry="2.0987926"
       rx="1.5144088"
       cy="97.657585"
       cx="68.883675"
       id="path3878"
       style="opacity:1;vector-effect:none;fill:#ffffff;fill-opacity:1;fill-rule:evenodd;stroke-width:0.14198434;stroke-linecap:butt;stroke-linejoin:miter;stroke-miterlimit:4;stroke-dasharray:none;stroke-dashoffset:0;stroke-opacity:1" />
  </g>
</svg>
